<?xml version="1.0" encoding="utf-8"?>
<!-- Generator: Adobe Illustrator 17.0.0, SVG Export Plug-In . SVG Version: 6.00 Build 0)  -->
<svg version="1.2" baseProfile="tiny" id="Capa_1" xmlns="http://www.w3.org/2000/svg" xmlns:xlink="http://www.w3.org/1999/xlink"
	 x="0px" y="0px" width="262.61px" height="262.6px" viewBox="64.95 289.72 262.61 262.6" xml:space="preserve">
<g>
	<polygon points="160.44,421.03 172.38,432.97 208.19,468.78 220.12,480.71 232.06,468.78 232.06,468.78 267.87,432.97 
		279.81,421.03 244,385.22 232.06,397.15 208.19,421.03 220.12,432.97 244,409.09 255.93,421.03 220.12,456.84 184.31,421.03 
		232.06,373.28 220.12,361.34 172.38,409.09 	"/>
	<polygon points="208.19,349.41 196.25,337.47 112.69,421.03 196.25,504.59 208.19,492.65 136.57,421.03 	"/>
	<path d="M196.25,289.72l-131.3,131.3l131.3,131.3l11.94-11.94l107.43-107.43l11.94-11.94L196.25,289.72z M196.25,528.46
		L88.82,421.03L196.25,313.6l107.43,107.43L196.25,528.46z"/>
</g>
</svg>
