<?xml version="1.0" encoding="UTF-8"?>
<svg width="262.6px" height="262.6px" baseProfile="tiny" version="1.2" viewBox="64.95 289.72 262.6 262.6" xml:space="preserve" xmlns="http://www.w3.org/2000/svg">
		<polygon fill="current" points="160.44 421.03 172.38 432.97 208.19 468.78 220.12 480.71 232.06 468.78 232.06 468.78 267.87 432.97 279.81 421.03 244 385.22 232.06 397.15 208.19 421.03 220.12 432.97 244 409.09 255.93 421.03 220.12 456.84 184.31 421.03 232.06 373.28 220.12 361.34 172.38 409.09"/>
		<polygon fill="current" points="208.19 349.41 196.25 337.47 112.69 421.03 196.25 504.59 208.19 492.65 136.57 421.03"/>
		<path fill="current" d="m196.25 289.72-131.3 131.3 131.3 131.3 131.31-131.31-131.31-131.29zm0 238.74-107.43-107.43 107.43-107.43 107.43 107.43-107.43 107.43z"/>
</svg>
