<?xml version="1.0" encoding="UTF-8"?>
<svg width="470.58px" height="262.6px" baseProfile="tiny" version="1.2" viewBox="64.95 289.72 470.58 262.6" xml:space="preserve" xmlns="http://www.w3.org/2000/svg">
		<path fill="current" d="m372.95 396.7c-0.15 5.23-2.02 16.78-16.08 16.78-13.95 0-16.88-10.16-16.88-26.28 0-18.28 5.8-26.08 17.35-26.08 13.48 0 15.47 10.31 15.61 16.33h-11.56c-0.1-2.82-0.17-7.19-4.23-7.19-3.98 0-5.01 4.61-5.01 16.97 0 10.85 0.61 17.2 4.86 17.2 3.96 0 4.2-4.7 4.35-7.73h11.59z"/>
		<path fill="current" d="M385.4,362.02h11.61v19.09h8.75v-19.09h11.66v50.51h-11.66v-21.65h-8.75v21.65H385.4V362.02z"/>
		<path fill="current" d="m442.38 401.71-1.72 10.81h-11.61l9.96-50.51h16.31l10.09 50.51h-12.06l-1.77-10.81h-9.2zm7.68-9.76c-1.15-7.37-2.25-15.59-2.89-20.23h-0.38c-0.49 4.84-1.73 12.86-2.92 20.23h6.19z"/>
		<path fill="current" d="m487.8 362.02v50.51h-11.6v-50.51h11.6z"/>
		<path fill="current" d="m503.05 412.53v-50.51h12.7c7.68 23.81 9.46 29.53 9.98 31.84h0.21c-0.5-6.36-0.66-14.68-0.66-22.56v-9.27h10.25v50.51h-12.51c-7.98-26.25-9.48-31.34-10.04-33.52h-0.23c0.4 6.08 0.61 15.43 0.61 23.69v9.83h-10.31v-0.01z"/>
		<path fill="current" d="m373.55 480.04h-8.53c-0.2-1.33-0.37-2.59-0.42-3.99-2.18 3.93-5.95 4.94-9.92 4.94-10.08 0-14.69-7.56-14.69-25.88 0-20.01 6.91-26.48 17.93-26.48 14.27 0 15.41 11.28 15.54 15.22h-11.61c-0.12-2.46-0.47-6.08-4.3-6.08-4.33 0-5.38 5.66-5.38 17.41 0 12.14 1.04 16.68 5.21 16.68 3.52 0 4.58-2.95 4.58-8.4v-3.23h-4.97v-9.11h16.58c-0.02 0.01-0.02 28.92-0.02 28.92z"/>
		<path fill="current" d="m397.83 429.53v35.36c0 3.29 0.69 7 4.79 7 3.96 0 4.69-3.2 4.69-6.95v-35.41h11.66v35.04c0 10.29-5.04 16.42-16.6 16.42-11.71 0-16.14-6.08-16.14-16.52v-34.94h11.6z"/>
		<path fill="current" d="m443.63 459.37v20.67h-11.45v-50.51h17.06c9.74 0 14.71 4.84 14.71 13.99 0 6.99-3.44 10.26-6.48 11.47 3.95 1.76 5.82 5.01 5.82 12.28v1.76c0 5.62 0.22 8.8 0.54 11.02h-11.26c-0.59-1.95-0.79-6.44-0.79-11.38v-1.74c0-5.97-1.2-7.55-5.64-7.55h-2.51v-0.01zm0.03-8.69h2.69c4.34 0 6.01-1.57 6.01-6.51 0-4.16-1.47-5.98-5.28-5.98h-3.43v12.49h0.01z"/>
		<path fill="current" d="m486.51 429.53v35.36c0 3.29 0.69 7 4.79 7 3.96 0 4.69-3.2 4.69-6.95v-35.41h11.66v35.04c0 10.29-5.04 16.42-16.6 16.42-11.71 0-16.14-6.08-16.14-16.52v-34.94h11.6z"/>
		<polygon fill="current" points="160.44 421.03 172.38 432.97 208.19 468.78 220.12 480.71 232.06 468.78 232.06 468.78 267.87 432.97 279.81 421.03 244 385.22 232.06 397.15 208.19 421.03 220.12 432.97 244 409.09 255.93 421.03 220.12 456.84 184.31 421.03 232.06 373.28 220.12 361.34 172.38 409.09"/>
		<polygon fill="current" points="208.19 349.41 196.25 337.47 112.69 421.03 196.25 504.59 208.19 492.65 136.57 421.03"/>
		<path fill="current" d="m196.25 289.72-131.3 131.3 131.3 131.3 131.31-131.31-131.31-131.29zm0 238.74-107.43-107.43 107.43-107.43 107.43 107.43-107.43 107.43z"/>
</svg>
