<?xml version="1.0" encoding="utf-8"?>
<!-- Generator: Adobe Illustrator 17.0.0, SVG Export Plug-In . SVG Version: 6.00 Build 0)  -->
<svg version="1.2" baseProfile="tiny" id="Capa_1" xmlns="http://www.w3.org/2000/svg" xmlns:xlink="http://www.w3.org/1999/xlink"
	 x="0px" y="0px" width="100px" height="100px" viewBox="0 0 100 100" xml:space="preserve">
<g>
	<path fill="#211915" d="M2891.507-1683.906c-2.303-1.081-4.476-0.69-8.536-2.71c-7.269-3.618-9.184-11.555-13.142-14.361
		c-8.042-5.702-11.774-15.453-19.238-34.955c-4.566-11.929-5.354-18.62-12.464-23.716c-3.51-2.515-5.042-2.119-10.569-5.007
		c-9.776-5.107-15.677-11.931-18.782-15.521c-3.557-4.113-6.591-7.995-9.25-12.617c-2.563-4.454-4.449-8.876-8.477-22.55
		c-1.857-6.303-4.165-14.557-6.575-24.37c4.517-0.301,11.591-1.263,19.51-4.607c7.556-3.189,16.16-6.822,20.864-15.971
		c0.349-0.68,6.741-13.105,1.255-22.58c-2.36-4.076-6.17-7.357-9.371-10.977c-3.202-3.62-5.915-7.952-5.461-12.494
		c0.067-0.669,0.309-2.189,1.503-3.693c1.267-1.599,3.002-2.382,4.118-2.816c6.165-2.396,17.209-3.354,23.042-3.911
		c6.964-0.666,9.433-1.039,12.541-2.019c3.592-1.132,6.345-2.541,8.141-3.577c-5.048,2.215-10.922,2.39-16.581,2.521
		c-3.942,0.091-7.885,0.182-11.828,0.272c-5.935,0.137-11.995,0.294-17.563,2.078c-5.567,1.784-10.654,5.521-12.018,10.52
		c-1.648,6.038,2.317,12.033,5.939,17.388c3.622,5.354,7.153,11.703,4.657,17.519c-2.027,4.723-7.545,7.647-13.058,9.27
		c-8.228,2.423-17.035,2.734-25.758,2.573c-2.055-2.003-4.466-4.073-7.274-6.051c-7.772-5.476-14.723-7.549-28.451-11.652
		c-6.357-1.899-19.833-6.326-28.994-8.671c-12.436-3.182-30.977-12.012-59.085-35.568c-13.54-12.33-26.747-25.062-41.016-36.477
		c-33.197-26.559-62.212-28.309-97.128-4.221c-24.065,16.602-46.174,36.037-69.155,54.219c-0.254,1.651-0.591,3.377-1.061,5.18
		c-1.272,4.877-3.064,8.837-4.675,11.787c1.299-3.776,2.613-8.835,3.007-14.834c0.018-0.284,0.212-3.38,0.042-6.505
		c-0.555-10.216-4.92-19.414-7.52-24.184c0.539,7.336,0.651,23.81-9.551,39.426c-3.113,4.764-6.566,8.5-9.755,11.381
		c-4.656,4.089-14.679,11.737-29.536,14.7c-22.205,4.427-39.671-4.71-44.519-7.465c3.57,5.015,10.089,12.72,20.558,18.729
		c17.903,10.275,35.537,8.808,41.845,7.974c3.043,4.793,4.878,8.906,5.962,11.652c2.896,7.334,3.109,11.69,6.774,19.239
		c1.5,3.09,2.971,5.464,3.9,6.883c1.292,4.954,2.584,9.913,3.876,14.873c0.834,3.199,2.59,5.999,2.63,10.366
		c0.035,3.869-1.039,4.321-0.516,6.288c1.514,5.689,12.608,9.793,21.471,7.285c3.728-1.055,3.125-2.166,9.013-5.253
		c11.099-5.82,17.289-3.994,19.307-8.536c0.89-2.005-0.338-2.314-0.786-10.097c-0.061-1.067,0.176-5.929,0.176-10.971
		c0,0,0.735-7.353,3.793-15.174c3.72-9.511,16.293-24.467,37.055-36.513c-3.503,2.484-7.193,5.315-10.974,8.536
		c-4.723,4.022-8.839,8.013-12.397,11.787c1.952,0.908,4.034,1.982,6.199,3.252c2.815,1.651,5.284,3.351,7.417,4.979
		c9.07-2.469,18.14-4.938,27.21-7.407c-14.254,4.715-25.167,8.106-33.249,10.104c-2.054,0.507-6.549,1.574-8.845,5.313
		c-1.48,2.412-1.746,5.49-0.995,9.181c3.616,17.786,7.644,35.495,11.876,53.146c3.017,12.585,10.155,22.933,21.686,28.598
		c12.529,6.157,25.963,10.476,39.002,15.596c0.942-0.576,2.251-1.56,3.236-3.151c2.057-3.321,1.296-7.011,0.438-10.885
		c-1.382-6.23-3.988-9.867-9.202-17.14c-1.484-2.071-3.343-4.472-5.819-4.496c-1.292-0.013-2.089,0.628-3.067,1.11
		c0,0-3.648,1.798-10.771-0.474c-5.875-1.874-12.34-16.605-11.271-37.012c1.037-0.325,3.036-0.922,5.581-1.466
		c29.812-6.371,46.634,13.255,75.871,8.671c4.675-0.732,10.927-1.783,17.342-6.232c12.198-8.459,15.589-22.684,16.63-28.516
		c0.629,14.278-6.02,24.94-16.108,34.778c19.71,1.299,40.359,3.587,61.801,7.151c4.39,0.73,8.725,1.499,13.006,2.303
		c-0.855-3.135-1.564-6.527-2.032-10.161c-2.475-19.243,3.091-35.464,7.723-45.387c-2.605,5.808-8.688,21.465-4.946,41.187
		c3.679,19.384,14.673,31.221,16.905,33.549c12.319,12.854,26.827,17.126,34.735,18.99c20.036,4.721,40.891,6.374,61.487,8.095
		c3.175,0.265,5.412,0.955,7.186,2.142c3.405,2.278,4.855,5.644,5.379,6.859c1.256,2.913,10.988,19.466,30.454,52.572
		c4.452,7.571,5.463,8.852,6.503,10.025c10.125,11.421,24.843,14.697,35.226,15.717
		C2901.305-1672.146,2896.693-1681.472,2891.507-1683.906L2891.507-1683.906z"/>
	<path fill="#211915" d="M2899.081-1135.3c-0.612-7.6-8.549-12.3-13.69-18.11c-6.341-7.17-8.807-16.91-14.199-24.65
		c0.004-1.1,0.022-2.18,0.036-3.25c-2.723-7.97-7.625-14.72-13.822-20.31c5.729-3.67,11.72-8.74,16.889-15.76
		c10.449-14.18,11.848-28.54,12.11-31.92c1.662-21.52-8.804-37.02-11.952-41.34c3.426,13.96,5.909,29.36-0.567,42.19
		c-7.238,14.34-23.868,21.49-39.77,23.62c-7.72,1.03-15.634,1.21-23.075,3.44c-5.637-0.71-11.346-0.91-16.994-0.47
		c-2.333-0.23-4.674-0.42-6.991-0.72c-12.285-1.58-25.133-6.87-30.725-17.48c-5.003-9.5-3.085-20.89-0.438-31.22
		c-2.432,3.2-10.518,14.67-9.233,30.59c0.202,2.51,1.283,13.13,9.355,23.62c2.221,2.89,4.643,5.31,7.113,7.38
		c-13.811,19.04-29.016,28.83-40.716,34.28c-24.583,11.45-37.201,5.42-62.011,20.64c-4.413,2.71-7.969,5.33-11.513,7.83
		c-23.068,9.65-47.518,10.88-73.671,8.14c-30.66-3.22-59.81,1.99-84.577,19.81c-4.028,2.13-7.965,4.46-11.883,6.74
		c-9.627,5.62-19.672,11.15-30.805,12.8c-11.133,1.65-23.717-1.39-30.33-10.13c-5.109-6.76-5.86-16.03-3.035-23.92
		c0.883-2.47,2.08-4.82,3.313-7.14c4.461-8.4,9.477-16.65,11.969-25.77c2.491-9.12,2.117-19.49-3.606-27.15
		c-4.547-6.09-11.979-9.78-19.629-11.27s-15.567-0.99-23.314-0.07c-2.108-2.63-5.541-4.01-8.986-4.22
		c-5.081-0.31-10.078,1.81-14.001,4.92s-6.909,7.16-9.667,11.27c-1.858,2.77-3.714,5.67-6.536,7.54
		c-1.451,0.96-3.128,1.63-4.395,2.81c1.759,0.47,2.759,1.23,4.551,1.56c13.806,2.51,28.908-4.36,35.618-16.2
		c7.308-1.09,14.767-2.21,21.979-0.64c2.126,0.47,12.403,4.34,15.707,13.39c0.902,2.47,1.992,7.31-4.041,21.19
		c-8.007,18.42-13.54,18.22-17.49,31.27c-1.455,4.8-4.789,16.42,0.486,28.48c0.491,1.13,2.859,6.38,8.282,11.68
		c19.743,19.3,53.512,13.43,55.793,13c6.536-1.23,11.878-3.33,22.563-7.54c0.497-0.2,0.966-0.39,1.454-0.59
		c-12.854,27.99-10.288,58.47-10.829,88.58c-0.183,10.13-5.194,20.17-7.814,30.29c-1.153,4.45-2.379,8.98-2.674,13.53
		c-0.734,11.33-0.117,22.79-1.732,33.98c-0.806,5.58-4.124,11.88-8.383,15.75c-6.489,5.89-10.01,14.76-9.602,23.26
		c-0.603,0.65-1.291,1.23-2.059,1.69c-0.774,0.46-1.643,0.84-2.199,1.54c-0.557,0.69-0.718,1.59-0.927,2.45
		c-1.23,4.99-4.716,9.33-9.121,12.25c-1.281,0.85-2.829,1.95-2.581,3.42c0.109,0.65,0.566,1.19,1.02,1.69
		c8.069,8.76,20.874,13.27,32.937,11.6c0.635-0.09,1.287-0.2,1.828-0.53c1.375-0.84,1.514-2.67,1.587-4.24
		c0.311-6.73,2.084-13.31,2.994-19.99c0.336-2.47,0.545-4.99,0.521-7.5c2.061-4.99,3.596-10.04,3.631-15.06
		c0.111-15.77,6.202-28.57,11.774-42.86c9.388-24.08,32.501-34.76,46.79-53.46c6.561-8.59,13.099-17.19,20.661-27.12
		c-4.197,7.15-8.393,14.3-12.59,21.45c7.539,3.1,16.101,6.08,25.639,8.58c4.324,1.14,8.506,2.08,12.522,2.86
		c1.85,1.7,4.159,4.33,5.293,7.99c2.006,6.49,0.233,11.63-3.957,20.19c-7.516,15.37-4.607,29.26,8.538,38.21
		c2.476,2.49,5.336,4.64,7.5,7.38c3.766,4.78,5.073,10.96,5.301,16.95c0.228,5.98-0.513,11.97-0.35,17.96
		c0.029,1.04,0.197,2.26,1.147,2.76c0.596,0.31,1.322,0.23,1.994,0.32c1.717,0.23,3.073,1.61,3.712,3.16
		c0.64,1.54,0.694,3.24,0.74,4.91c7.206-0.36,14.463,0.24,21.498,1.78c0.806-6.13-2.203-12.21-2.744-18.37
		c-0.682-7.78-2.702-15.44-5.956-22.59c-4.957-10.9-12.776-20.76-16.667-31.9c0.528-2.94,2.662-5.71,4.412-9.12
		c7.733-15.08,20.962-23.44,29.264-27.62c-4.247-0.03-9.384-0.4-15.105-1.52c-7.274-1.43-13.264-3.64-17.784-5.69
		c5.886,1.78,12.675,3.35,20.275,4.23c18.35,2.13,36.431-0.32,54.314-6.09c-2.137-3.01-4.263-6.28-6.322-9.8
		c-6.578-11.26-10.665-22.07-13.263-31.38c5.47,18.35,13.584,29.59,20.12,36.53c16.674,17.7,22.956,22.88,22.956,22.88
		c1.726,1.42,6.159,5,10.301,10.97c3.05,4.4,4.565,8.11,5.202,9.62c7.215,17.06,15.445,19.7,21.466,36.32
		c2.371,6.55,5.513,15.22,5.417,26.65c-0.067,7.91-1.661,14.13,2.632,18.82c3.782,4.14,8.748,3.38,9.838,6.87
		c1.565,4.99-7.751,9.42-6.26,13.44c1.056,2.85,7.377,3.27,19.974,4c11.408,0.67,12.747-0.24,13.416-0.85
		c4.331-3.95,0.887-13.78-3.208-25.08c-3.852-10.63-7.802-18.06-9.821-21.98c0,0-3.46-6.71-15.261-35.06
		c-4.912-11.8-10.875-36.89-2.715-92.06c-0.102,11.95-0.203,23.9-0.304,35.85c2.436,0.1,5.032,0.03,7.757-0.29
		c16.499-1.94,27.88-11.94,33.221-17.48c1.764,1.86,3.255,4.05,5.316,5.5c10.966,7.69,13.447,14.69,14.385,20.59
		c0.997,6.27-1.008,14.87-6.811,19.61c-5.122,4.18-11.39,3.87-12.72,8.39c-0.733,2.49,0.92,3.44,0.596,6.86
		c-0.464,4.9-4.171,6.32-6.49,10.29c-3.955,6.76-0.468,15.14,4.9,28.04c2.821,6.78,4.29,10.18,7.155,10.67
		c5.431,0.95,11.37-8.81,13.317-12.01c6.041-9.92,4.509-14.37,9.012-28.63c3.633-11.49,8.549-21.01,12.85-29.33
		c7.495-14.5,9.547-14.91,9.54-20.21c-0.015-11.76-10.131-24.37-11.788-26.44c-0.903-1.12-1.587-1.9-1.845-2.19
		c-5.505-6.29-12.323-19.22-19.36-47.25c0.267-9.58-0.255-17.22-0.794-22.5c-0.619-6.06-1.193-8.32,0-11.82
		c2.047-6.01,6.5-7.45,11.925-13.73c2.683-3.11,6.008-7.86,8.449-14.89c6.663-0.81,11.947-0.51,15.43,0.37
		c8.013,2.02,15.54,5.84,23.755,6.87c4.466,0.56,9.046,0.26,13.394-0.87c1.244-0.32,2.525-0.74,3.412-1.64
		c1.072-1.09,1.371-2.65,1.829-4.08C2890.681-1120.51,2899.769-1126.76,2899.081-1135.3L2899.081-1135.3z"/>
	<path fill="#3D3A3A" d="M3423.06-2101.283c-132.29,0-240.91,101.279-252.59,230.526c2.1-0.191,4.25-0.492,6.45-0.93
		c14.85-2.963,24.88-10.611,29.53-14.7c3.19-2.881,6.64-6.617,9.76-11.381c10.2-15.616,10.09-32.09,9.55-39.426
		c2.6,4.77,6.96,13.968,7.52,24.184c0.17,3.125-0.03,6.221-0.05,6.505c-0.39,5.999-1.7,11.058-3,14.834
		c1.61-2.95,3.4-6.91,4.67-11.787c0.47-1.803,0.81-3.529,1.06-5.18c22.99-18.182,45.09-37.617,69.16-54.219
		c34.92-24.088,63.93-22.338,97.13,4.221c14.27,11.415,27.47,24.147,41.01,36.477c28.11,23.556,46.65,32.386,59.09,35.568
		c9.16,2.345,22.64,6.772,28.99,8.671c13.73,4.103,20.68,6.176,28.45,11.652c2.81,1.978,5.22,4.048,7.28,6.051
		c8.72,0.161,17.53-0.15,25.76-2.573c5.51-1.623,11.03-4.547,13.05-9.27c2.5-5.816-1.03-12.165-4.65-17.519
		c-3.63-5.354-7.59-11.35-5.94-17.388c1.36-4.999,6.45-8.736,12.02-10.52c5.56-1.784,11.62-1.941,17.56-2.078
		c3.94-0.09,7.88-0.181,11.83-0.272c5.66-0.131,11.53-0.306,16.58-2.521c-1.8,1.036-4.55,2.445-8.14,3.577
		c-3.11,0.98-5.58,1.353-12.55,2.019c-5.83,0.557-16.87,1.515-23.04,3.911c-1.11,0.434-2.85,1.217-4.12,2.816
		c-1.19,1.504-1.43,3.024-1.5,3.693c-0.45,4.542,2.26,8.874,5.46,12.494s7.01,6.901,9.37,10.977c5.49,9.475-0.9,21.9-1.25,22.58
		c-4.7,9.149-13.31,12.782-20.86,15.971c-7.92,3.344-15,4.306-19.51,4.607c2.41,9.813,4.71,18.067,6.57,24.37
		c4.03,13.674,5.91,18.096,8.48,22.55c2.66,4.622,5.69,8.504,9.25,12.617c3.1,3.59,9,10.414,18.78,15.521
		c5.53,2.888,7.06,2.492,10.57,5.007c7.11,5.096,7.9,11.787,12.46,23.716c1.17,3.043,2.24,5.848,3.25,8.438
		c19.27-35.76,30.21-76.669,30.21-120.137C3676.71-1987.719,3563.15-2101.283,3423.06-2101.283L3423.06-2101.283z"/>
	<path fill="#211915" d="M3617.9-1720.678c-0.79-1.566-2.24-3.882-4.79-5.588c-1.77-1.187-4.01-1.877-7.19-2.142
		c-20.59-1.721-41.45-3.374-61.48-8.095c-7.91-1.864-22.42-6.136-34.74-18.99c-2.23-2.328-13.22-14.165-16.9-33.549
		c-3.75-19.722,2.34-35.379,4.94-41.187c-4.63,9.923-10.2,26.144-7.72,45.387c0.47,3.634,1.18,7.026,2.03,10.161
		c-4.28-0.804-8.62-1.573-13-2.303c-21.45-3.564-42.1-5.852-61.81-7.151c10.09-9.838,16.74-20.5,16.11-34.778
		c-1.04,5.832-4.43,20.057-16.63,28.516c-6.41,4.449-12.66,5.5-17.34,6.232c-29.24,4.584-46.06-15.042-75.87-8.671
		c-2.55,0.544-4.54,1.141-5.58,1.466c-1.07,20.407,5.39,35.138,11.27,37.012c7.12,2.272,10.77,0.474,10.77,0.474
		c0.98-0.482,1.78-1.123,3.07-1.11c2.47,0.024,4.33,2.425,5.82,4.496c5.21,7.273,7.82,10.91,9.2,17.14
		c0.86,3.874,1.62,7.564-0.44,10.885c-0.99,1.591-2.29,2.575-3.24,3.151c-13.04-5.12-26.47-9.439-39-15.596
		c-11.53-5.665-18.67-16.013-21.68-28.598c-4.24-17.651-8.26-35.36-11.88-53.146c-0.75-3.691-0.48-6.769,1-9.181
		c2.29-3.739,6.79-4.806,8.84-5.313c8.08-1.998,19-5.389,33.25-10.104c-9.07,2.469-18.14,4.938-27.21,7.407
		c-2.13-1.628-4.6-3.328-7.42-4.979c-2.16-1.27-4.24-2.344-6.2-3.252c3.56-3.774,7.68-7.765,12.4-11.787
		c3.78-3.221,7.47-6.052,10.97-8.536c-20.76,12.046-33.33,27.002-37.05,36.513c-3.06,7.821-3.79,15.174-3.79,15.174
		c0,5.042-0.24,9.904-0.18,10.971c0.45,7.783,1.68,8.092,0.79,10.097c-2.02,4.542-8.21,2.716-19.31,8.536
		c-5.89,3.087-5.29,4.198-9.01,5.253c-8.87,2.508-19.96-1.596-21.47-7.285c-0.53-1.967,0.55-2.419,0.51-6.288
		c-0.04-4.367-1.8-7.167-2.63-10.366c-1.29-4.96-2.58-9.919-3.87-14.873c-0.93-1.419-2.4-3.793-3.9-6.883
		c-3.67-7.549-3.88-11.905-6.78-19.239c-0.25-0.623-0.54-1.326-0.86-2.082c-0.87-2.372-1.87-4.79-3.07-7.242
		c-0.79-1.605-1.61-3.129-2.44-4.573c-7.25,0.833-19.86,1.174-32.31-4.775c-7.12-3.399-10.61-7.141-11.59-8.231
		c-5.23-5.839-7.03-12.241-7.72-15.648c0.07,4.158,0.86,13.328,7.32,21.542c5.83,7.423,13.52,10.544,19.34,12.225
		c0,0.65-0.02,1.298-0.02,1.95c0,140.088,113.56,253.651,253.65,253.651c82.43,0,155.67-39.325,202-100.232l19.47,18.866
		L3617.9-1720.678L3617.9-1720.678z"/>
	<path fill="#211915" d="M3305.19-1005.37c0.48-26.9-1.81-54.12,9.67-79.12c-0.44,0.17-0.86,0.35-1.3,0.52
		c-9.54,3.76-14.32,5.64-20.15,6.74c-2.04,0.38-32.2,5.63-49.84-11.61c-4.84-4.74-6.96-9.43-7.4-10.43
		c-4.71-10.78-1.73-21.15-0.43-25.44c0.73-2.43,1.53-4.34,2.39-6c2.75-5.27,4.77-7.29,7.99-11.81c0.25-0.36,5.93-8.43,8.63-17.21
		c0.67-2.19,1.64-6.03,0.69-10.21c-0.52-2.85-1.86-6.7-5.3-9.3c-3.05-2.31-6.44-2.64-8.54-2.85c-1.13-0.11-5.75-0.46-10.97,1.9
		c-2.1,0.95-6.56,3.36-9.75,8.54c-3.46,5.59-3.38,11.06-3.26,13c0.13-1.86,0.81-8.52,6.24-13.82c1.48-1.45,5.43-4.85,11.24-5.55
		c1.82-0.22,4.64-0.52,7.72,0.95c1.45,0.69,2.56,1.58,3.38,2.41c-18.65,35.32-29.24,75.57-29.24,118.29
		c0,60.61,21.27,116.25,56.74,159.88c0.15-0.59,0.32-1.18,0.7-1.66c0.5-0.62,1.28-0.96,1.97-1.38c0.68-0.41,1.3-0.93,1.84-1.51
		c-0.37-7.59,2.78-15.51,8.57-20.77c3.81-3.46,6.77-9.08,7.49-14.07c1.44-9.99,0.89-20.23,1.55-30.35
		c0.26-4.06,1.36-8.11,2.39-12.09C3300.55-987.36,3305.02-996.32,3305.19-1005.37L3305.19-1005.37z"/>
	<path fill="#3D3A3A" d="M3262.72-1179.69c5.11,6.84,5.44,16.1,3.22,24.25c-2.23,8.14-6.71,15.52-10.69,23.02
		c-1.1,2.07-2.17,4.17-2.96,6.37c-2.53,7.05-1.85,15.33,2.71,21.37c5.91,7.81,17.15,10.52,27.09,9.05
		c9.95-1.48,18.92-6.42,27.52-11.43c3.5-2.04,7.01-4.12,10.61-6.02c22.12-15.93,48.16-20.58,75.55-17.7
		c23.36,2.45,45.19,1.35,65.8-7.27c3.16-2.23,6.34-4.57,10.28-6.99c22.16-13.6,33.43-8.21,55.39-18.44
		c10.45-4.87,24.03-13.61,36.37-30.62c-2.21-1.85-4.37-4.01-6.35-6.59c-7.21-9.37-8.18-18.86-8.36-21.1
		c-1.15-14.22,6.08-24.46,8.25-27.32c-2.37,9.23-4.08,19.4,0.39,27.88c4.99,9.48,16.47,14.21,27.44,15.62
		c2.07,0.26,4.16,0.44,6.25,0.64c5.04-0.39,10.14-0.22,15.18,0.42c6.64-1.99,13.71-2.15,20.61-3.07
		c12.69-1.71,25.9-6.99,33.18-17.24c-46.46-52.24-114.17-85.16-189.59-85.16c-92.24,0-172.97,49.24-217.37,122.87
		C3256.98-1185.39,3260.3-1182.93,3262.72-1179.69L3262.72-1179.69z"/>
	<path fill="#211915" d="M3672.3-1210.19c3.24-8.05,4.22-15.21,4.55-19.79c-1.05,3.15-2.58,7.29-4.78,11.99
		c-1.71,3.66-4.34,9.2-8.84,15.45c-2.65,3.67-6.58,8.47-12.16,13.4c-1.09,0.8-2.17,1.56-3.25,2.25c5.54,4.99,9.91,11.02,12.35,18.14
		c-0.02,0.96-0.03,1.93-0.03,2.9c4.81,6.92,7.01,15.62,12.68,22.02c4.59,5.19,11.68,9.39,12.23,16.17
		c0.61,7.64-7.51,13.22-9.85,20.54c-0.41,1.28-0.68,2.68-1.63,3.65c-0.8,0.8-1.94,1.18-3.05,1.46c-3.89,1.01-7.98,1.28-11.97,0.78
		c-7.33-0.92-14.06-4.34-21.21-6.14c-3.11-0.78-7.83-1.05-13.79-0.33c-2.18,6.28-5.15,10.53-7.54,13.3
		c-4.85,5.61-8.83,6.9-10.65,12.26c-1.07,3.13-0.56,5.15,0,10.56c0.48,4.72,0.94,11.55,0.71,20.1c6.28,25.04,12.37,36.58,17.29,42.2
		c0.23,0.27,0.84,0.96,1.65,1.96c1.48,1.85,10.51,13.11,10.53,23.62c0,4.74-1.83,5.1-8.53,18.05c-3.84,7.43-8.23,15.93-11.47,26.2
		c-4.03,12.73-2.66,16.71-8.05,25.57c-1.74,2.86-7.05,11.58-11.9,10.73c-2.56-0.44-3.87-3.48-6.39-9.53
		c-4.8-11.53-7.91-19.01-4.38-25.05c2.07-3.55,5.39-4.81,5.8-9.19c0.29-3.05-1.19-3.9-0.53-6.13c1.19-4.03,6.79-3.76,11.36-7.49
		c5.18-4.23,6.97-11.92,6.08-17.52c-0.83-5.27-3.05-11.52-12.85-18.39c-1.84-1.29-3.17-3.25-4.74-4.91
		c-4.77,4.95-14.94,13.88-29.68,15.61c-2.43,0.29-4.75,0.35-6.93,0.26c0.09-10.67,0.19-21.34,0.28-32.02
		c-7.29,49.28-1.97,71.69,2.42,82.23c10.54,25.32,13.63,31.31,13.63,31.31c1.81,3.5,5.33,10.15,8.77,19.64
		c3.66,10.09,6.74,18.87,2.87,22.4c-0.6,0.54-1.79,1.35-11.98,0.76c-11.26-0.65-16.9-1.03-17.84-3.57
		c-1.34-3.6,6.98-7.55,5.59-12.01c-0.98-3.11-5.41-2.44-8.79-6.13c-3.84-4.19-2.41-9.75-2.35-16.82c0.08-10.2-2.72-17.95-4.84-23.8
		c-5.38-14.84-12.73-17.21-19.17-32.44c-0.57-1.35-1.93-4.67-4.65-8.6c-3.7-5.33-7.66-8.52-9.2-9.8c0,0-5.61-4.62-20.51-20.43
		c-5.83-6.2-13.08-16.24-17.97-32.63c2.32,8.32,5.97,17.97,11.85,28.03c1.84,3.15,3.74,6.06,5.65,8.76
		c-15.98,5.15-32.13,7.33-48.52,5.44c-6.79-0.79-12.85-2.19-18.11-3.78c4.04,1.83,9.39,3.8,15.89,5.08c5.11,1,9.7,1.33,13.49,1.36
		c-7.42,3.73-19.23,11.2-26.14,24.67c-1.56,3.05-3.47,5.52-3.94,8.14c3.48,9.95,10.46,18.76,14.89,28.49
		c2.9,6.39,4.71,13.24,5.32,20.18c0.48,5.51,3.17,10.93,2.45,16.42c-6.29-1.38-12.77-1.92-19.21-1.6c-0.04-1.48-0.08-3.01-0.66-4.39
		c-0.57-1.38-1.78-2.61-3.31-2.81c-0.6-0.08-1.25-0.01-1.78-0.29c-0.85-0.45-1-1.54-1.03-2.47c-0.14-5.35,0.52-10.69,0.32-16.04
		c-0.21-5.35-1.38-10.87-4.74-15.14c-1.93-2.45-4.49-4.37-6.7-6.59c-11.74-7.99-14.34-20.4-7.62-34.13
		c3.74-7.65,5.32-12.24,3.53-18.03c-1.01-3.27-3.08-5.63-4.73-7.14c-3.59-0.7-7.32-1.54-11.18-2.55c-8.52-2.24-16.17-4.9-22.9-7.67
		c3.74-6.39,7.49-12.77,11.24-19.16c-6.75,8.87-12.59,16.55-18.45,24.22c-12.77,16.71-33.41,26.25-41.8,47.76
		c-4.97,12.76-10.41,24.19-10.51,38.28c-0.03,4.48-1.41,8.99-3.25,13.45c0.02,2.24-0.16,4.49-0.46,6.7
		c-0.82,5.97-2.4,11.85-2.68,17.86c-0.03,0.71-0.08,1.48-0.28,2.16c45.46,43.06,106.84,69.47,174.39,69.47
		c140.09,0,253.66-113.56,253.66-253.65C3724.27-1114.21,3704.9-1167.52,3672.3-1210.19L3672.3-1210.19z"/>
</g>
<rect x="2032.12" y="-2451.8" fill="#FFFFFF" width="1999.88" height="1999.8"/>
<g>
	<rect x="2260.12" y="-415.8" fill="#FFFFFF" width="1999.88" height="1999.8"/>
	<path fill="#211915" d="M3018.45,178.98c0.805,0.655,1.756,1.139,2.698,1.618c0.641,0.325,1.282,0.651,1.951,0.925
		c1.353,0.555,2.799,0.892,4.249,1.175c1.47,0.287,2.979,0.522,4.472,0.36c1.493-0.161,2.987-0.767,3.87-1.88
		c3.028-1.079,6.859,0.151,8.867,2.487c1.956,2.276,2.511,5.354,2.097,8.228c0.927-3.067,0.816-6.418-0.7-9.267
		c-1.759-3.308-5.547-5.768-9.57-5.725c-0.868-0.807-2.061-1.557-3.232-1.927c-2.745-0.867-5.737,0.047-8.49,0.891
		c-2.755,0.844-5.846,1.609-8.478,0.486C3016.861,177.261,3017.552,178.248,3018.45,178.98L3018.45,178.98z"/>
	<path fill="#211915" d="M3334.39,410.596c-118.766-0.028-217.274,17.95-287.274,35.714
		c78.966-12.058,174.104-21.275,281.914-20.962c127.56,0.37,238.15,13.981,326.53,30.279
		C3581.15,434.258,3470.38,410.628,3334.39,410.596L3334.39,410.596z"/>
	<path fill="#211915" d="M3099.713,379.418c-0.629-3.036-1.801-5.978-3.472-8.664c0.532-0.157,1.064-0.317,1.596-0.483
		c-0.463-1.918-0.669-3.646-1.299-5.232c-3.126-7.864-6.119-15.784-9.674-23.486c-1.563-3.385-1.472-6.123,0.198-9.362
		c4.606-8.934,9.674-17.615,15.556-25.802c4.256-3.495,8.53-7.008,12.096-11.039c1.7-1.922,3.23-3.952,4.759-5.979
		c2.778-3.685,5.555-7.369,8.333-11.053c8.861-8.915,14.591-14.015,22.166-17.097c3.035-1.235,6.81-2.484,6.81-2.484
		c11.375-3.763,21.211-5.178,27.861-5.775c-5.369,1.307-10.738,2.613-16.107,3.92c-1.457,10.623-2.063,21.437-4.816,31.771
		c-2.685,10.077-0.187,17.622,7.89,24.232c1.286,1.052,2.314,2.374,3.631,3.387c10.54,8.102,18.895,17.477,21.749,30.228
		c0.276,1.233,1.458,3.132,2.442,3.257c4.786,0.606,6.013,3.468,6.659,7.185c0.537,3.085,1.517,6.106,2.42,9.618
		c0.163,0.015,0.327,0.03,0.489,0.046c-0.062,0.395-0.124,0.789-0.185,1.184C3172.163,369.074,3135.66,372.813,3099.713,379.418
		L3099.713,379.418z M3201.966,289.36c3.697-9.06,11.441-15.86,17.862-22.183c7.675,3.003,14.551,6.949,21.475,10.7
		c7.225,3.915,14.747,6.66,21.757,9.527c-0.05-0.267-0.09-0.526-0.14-0.788c0.65,0.343,1.32,0.666,2,0.957
		c-0.39-2.58,0.18-5.275,1.59-7.537c-1.27-1.587-0.9-3.783-0.39-5.692c1.64-6.078,4.18-11.952,7.5-17.426
		c-0.19,1.481-0.69,2.982-1.55,4.531c-3.51,6.264-4.9,12.756-3.91,19.307c-0.14,0.2-0.29,0.393-0.41,0.605
		c-1.42,2.475-1.2,5.467-0.54,8.195c0.66,2.729,1.74,5.397,1.92,8.187c0.03,0.54,0.04,1.092,0.23,1.603
		c0.5,1.309,2.04,1.968,3.39,2.61c8.47,4.047,13.79,13.021,12.88,21.718c-0.12,1.149-0.34,2.301-0.23,3.451s0.61,2.333,1.64,2.999
		c0.64,0.409,1.41,0.589,2.16,0.761c1.03,0.235,2.06,0.47,3.09,0.705c1.72,0.394,4.91,1.199,4.11,2.647
		c-1.72,3.084-2.81,6.456-3.21,9.896c-0.07,0.658-0.12,1.331,0.04,1.976c0.17,0.645,0.58,1.266,1.22,1.569
		c0.62,0.293,1.39,0.311,1.98,0.665c0.47,2.578,2.1,4.886,4.11,6.739c2.02,1.853,4.43,3.303,6.82,4.741
		c0.06,0.036,0.12,0.07,0.18,0.106c4.62,3.844,9.76,7.171,15.28,9.846c4.91-10.449,6.63-22.14,4.9-33.404
		c-0.19-1.184-0.41-2.373-0.88-3.488c-0.47-1.119-1.18-2.137-1.9-3.143c-1.36-1.929-2.75-3.845-4.23-5.701
		c-0.38-0.476-0.77-0.943-1.16-1.411c-2.23-3.604-4.46-7.209-6.68-10.813c-2.16-3.493-4.33-7.032-5.48-10.905
		c-0.19-0.669-0.37-1.372-0.86-1.906c-0.27-0.308-0.64-0.544-0.9-0.864c-0.37-0.447-0.5-1.016-0.59-1.567
		c-0.91-5.162,0.65-9.88,0.65-9.88c0.77-2.666,0.94-2.212,1.47-4.222c1.09-4.122,0.55-6.69,0.65-9.493
		c0.09-2.577,0.75-6.314,3.5-10.918c-1.19,3.26-2.39,8.058-1.81,13.766c0.18,1.782,0.51,3.41,0.91,4.865
		c4.69-0.496,11.07-1.628,18.15-4.334c7.28-2.785,12.79-6.278,16.61-9.142c-2.97,3.204-6.32,6.102-10.05,8.521
		c0.61,0.47,1.33,0.822,2.1,1.025c0.43,1.255,1.66,2.105,2.75,2.968c3.74,2.983,6.35,7.012,8.15,11.244
		c0.81,1.917,1.47,3.882,2.04,5.87c0.06,0.848,0.12,1.696,0.17,2.544c0.92,16.498,4.2,32.221,14.28,46.352
		c1.34,1.888,1.7,4.809,1.42,7.145c-0.85,7.221-1.9,14.453-3.52,21.557c-0.86,3.747,0.64,5.576,3.81,7.217
		c2.83,1.469,5.65,2.553,8.44,3.303c-0.04,0.193-0.08,0.386-0.11,0.579c-28.83-2.928-57.8-4.845-86.76-5.8
		c17.09-2.286,34.17-4.572,51.26-6.858c-27.49-2.986-55.17-4.846-82.868-5.417c-0.011-0.04-0.021-0.082-0.034-0.122
		c-0.361-1.138-0.912-2.218-1.529-3.26c-2.873-4.847-7.155-8.824-11.966-12.2c-6.373-7.125-12.81-14.211-19.546-21.044
		c-8.266-8.386-16.505-16.821-20.332-27.731C3201.367,298.809,3200.347,293.327,3201.966,289.36L3201.966,289.36z M3355.47,396.506
		c68.86,3.765,136.56,16.733,204.28,23.209c-48.89-13.523-99.34-23.479-150.44-30.158c0.62-4.313-0.18-8.7-1.65-12.945
		c-1.19-6.065-5.33-10.719-8.66-15.739c-6.38-9.62-12.77-19.287-11.1-31.336c0.98-7.073-1.33-13.65-3.16-20.448
		c-4.19-15.512-7.8-31.225,0.35-46.78c1.35-2.57,0.58-1.796,1.68-5.937c5.77-21.678,4.07-31.374,7.18-45.657
		c2.65-12.226,6.24-15.937,10.38-26.582c5.68-14.628,10.2-36.688,3.81-68.354c1.69,17.077,1.86,49.21-18.43,80.142
		c-4.45,6.773-9.3,12.611-14.14,17.613c2.26-4.235,5.22-7.896,7.9-11.719c3.6-5.14,17.47-29.498,20.75-60.369
		c5.29-49.885-19.56-102.844-60.45-131.131c-0.81-0.561-1.49-1.02-1.97-1.337c-1.01-1.06-0.99-2.709-0.33-3.982
		c0.67-1.273,1.85-2.247,3.04-3.148c2.49-1.891,5.14-3.633,7.29-5.838c4.86-4.959,6.79-12.049,5.61-18.616
		c-3.77,0.965-7.56,1.933-11.45,2.318c-1.34,0.132-2.68,0.195-4.02,0.297c-1.62,0.124-3.23,0.323-4.84,0.564
		c4.25-1.426,8.96-3.739,13.24-7.516c6.91-6.101,9.22-12.917,9.69-14.398c2.96-9.301,0.32-17.066-0.87-20.412
		c-4.92-13.828-16.94-20.336-19.55-21.677c-4.71-2.413-9.07-3.543-12.12-4.114c3.44,2.254,17.9,12.232,18.87,27.532
		c0.17,2.802,0.39,7.171-2.25,11.55c-2.1,3.474-5.83,6.671-22.84,12.026c-5.6,1.761-12.85,3.82-21.49,5.719
		c-1.5-0.878-3.03-1.667-4.64-2.171c-0.35-0.109-0.67-0.245-0.97-0.396c-20.26,8.26-39.734,10.483-58.454,6.963
		c-0.663,0.774-1.243,1.588-1.762,2.442c-5.048-1.363-9.682-2.31-12.038-5.947c-0.321-0.27-0.632-0.552-0.93-0.852
		c-2.966-3.001-3.806-7.022-3.291-11.115c0.717-5.699,3.727-10.333,7.566-14.331c-14.241,8.579-25.51,25.891-12.508,39.47
		c4.464,4.661,10.735,7.556,17.301,8.87c-0.13,0.814-0.263,1.626-0.4,2.438c-1.827,5.339-5.049,10.289-8.105,15.184
		c-0.365,0.584-0.73,1.172-0.976,1.806c-0.603,1.552-0.665,3.055-0.508,4.697c0.28-0.956,0.59-1.905,0.929-2.845
		c0.659,0.351,1.018,1.052,1.1,1.745c0.001,0.002,0,0.005,0.001,0.007c-4.935,8.603-11.985,15.799-19.148,22.985
		c-1.285,1.289-2.547,2.621-3.769,3.987c-1.289,0.862-2.578,1.725-3.867,2.587c-0.404,0.192-0.804,0.393-1.211,0.581
		c-1.018,0.467-2.056,0.924-3.167,1.154c-0.706,0.147-1.444,0.203-2.103,0.478c-1.553,0.646-2.245,2.29-2.684,3.798
		c-0.074,0.255-0.149,0.514-0.227,0.773c-0.492,0.536-0.927,1.109-1.258,1.747c-0.247,0.475-0.409,0.969-0.535,1.471
		c-0.057,0.047-0.107,0.1-0.167,0.144l0.132,0.013c-0.567,2.476,0.192,5.194,1.587,7.435c1.709,2.744,4.233,4.971,6.482,7.368
		c3.539,3.773,6.447,8.042,8.589,12.612c0.285,0.608,0.571,1.24,1.094,1.696c0.425,0.37,0.975,0.595,1.521,0.794
		c2.672,0.973,5.676,1.488,8.425,0.719c1.869-0.522,3.491-1.597,5.297-2.279c2.014-0.762,4.253-1.019,6.411-0.737
		c0.191,0.485,0.82,0.675,1.373,0.773c4.734,0.843,9.401-0.325,14.068-1.703c1.687-0.143,3.388-0.342,5.105-0.611
		c5.523-0.864,11.395-0.991,16.947-0.328c6.24,0.746,12.97,3.733,18.01,7.216c-5.69-2.499-11.69-4.988-17.97-4.561
		c-8.162,0.556-14.842,5.856-21.208,10.563c-6.682,4.939-13.689,9.486-20.813,13.882c-0.052,0.021-0.103,0.045-0.155,0.067
		c-14.49,6.064-26.785,14.269-37.613,24.684c-5.65,5.435-11.327,10.848-17.019,16.247c-7.073,3.485-14.771,5.704-22.62,6.456
		c-9.504,0.911-19.478-0.209-28.269,3.515c-3.075,1.303-5.888,3.161-8.517,5.223c-10.95,8.589-18.842,20.979-22.079,34.508
		c-0.099,0.237-0.203,0.472-0.3,0.709c-3.304,8.071-5.132,16.573-7.758,24.849c-1.165,3.672-2.532,7.379-5.072,10.415
		c-4.18,4.999-11.049,7.557-17.844,8.558c-3.641,0.537-7.419,0.685-10.981-0.191c-8.92-2.191-14.954-11.46-12.808-19.674
		c1.435-5.498,5.82-9.904,10.217-13.877c6.755-6.104,9.571-7.839,11.485-13.161c0.602-1.674,1.927-5.539,0.335-9.943
		c-0.946-2.614-2.561-4.424-3.653-5.457c0.648,1.084,1.485,2.788,1.836,4.982c0.657,4.106-0.802,7.337-1.385,8.584
		c-2.127,4.549-4.892,4.928-13.628,12.817c-3.769,3.404-5.69,5.151-7.451,7.344c-1.916,2.387-5.425,7.037-6.748,12.325
		c-2.271,9.077,2.872,18.96,11.337,24.137c8.464,5.176,19.606,5.943,29.348,3.231c8.807-2.452,16.68-7.625,22.03-14.476
		c0.86-1.1,1.661-2.251,2.211-3.507c0.704-1.605,0.977-3.335,1.285-5.041c0.153-0.848,0.548-2.4,1.378-5.007
		c-3.18,17.28-5.914,34.635-9.231,51.895c-2.105,10.955-2.43,22.467-9.808,32.11c-5.723,7.481-6.346,15.696-3.79,24.184
		c1.827,6.066,1.166,10.906-3.754,16.039c-5.846,6.1-5.079,14.284,0.065,19.18c-0.107,0.198-0.214,0.396-0.321,0.594
		c-0.279,0.518-0.565,1.063-0.538,1.64c0.045,0.924,0.889,1.662,1.797,2.071c0.907,0.41,1.921,0.597,2.82,1.022
		c0.425,0.2,0.831,0.462,1.086,0.832c0.667,0.967,0.092,2.237,0.265,3.369c0.251,1.649,2.016,2.722,3.705,3.343
		c2.633,0.969,5.413,1.36,8.244,1.572c-77.168,16.953-151.056,47.824-212.668,93.497c86.154-50.872,185.819-82.273,287.846-91.528
		c-106.622,26.715-130.171,33.612-129.913,34.528c0.415,1.475,61.615-16.257,143.537-24.41
		C3233.97,389.287,3285.29,392.668,3355.47,396.506L3355.47,396.506z"/>
	<path fill="#211915" d="M3111.712,1093.07c35.948-6.61,72.451-10.35,109.102-11.63c0.062-0.4,0.124-0.79,0.186-1.18
		c-0.163-0.02-0.327-0.04-0.49-0.05c-0.903-3.51-1.883-6.53-2.419-9.62c-0.647-3.72-1.874-6.58-6.66-7.18
		c-0.983-0.13-2.165-2.03-2.441-3.26c-2.855-12.75-11.209-22.13-21.75-30.23c-1.317-1.01-2.345-2.33-3.631-3.39
		c-8.076-6.61-10.574-14.15-7.89-24.23c2.754-10.33,3.359-21.15,4.816-31.77c5.369-1.31,10.738-2.61,16.107-3.92
		c-6.65,0.6-16.485,2.01-27.861,5.78c0,0-3.775,1.25-6.81,2.48c-7.575,3.08-13.304,8.18-22.166,17.1
		c-2.778,3.68-5.555,7.37-8.332,11.05c-1.529,2.03-3.059,4.06-4.76,5.98c-3.566,4.03-7.84,7.54-12.096,11.04
		c-5.881,8.19-10.95,16.87-15.555,25.8c-1.67,3.24-1.761,5.98-0.199,9.36c3.555,7.7,6.549,15.62,9.674,23.49
		c0.631,1.58,0.836,3.31,1.299,5.23c-0.532,0.17-1.064,0.33-1.596,0.48C3109.911,1087.09,3111.083,1090.03,3111.712,1093.07
		L3111.712,1093.07z"/>
	<path fill="#211915" d="M3036.661,889.51c2.754-0.84,5.745-1.75,8.491-0.89c1.17,0.37,2.364,1.12,3.231,1.93
		c4.023-0.04,7.811,2.42,9.571,5.73c1.515,2.84,1.626,6.2,0.699,9.26c0.415-2.87-0.141-5.95-2.096-8.23
		c-2.009-2.33-5.839-3.56-8.868-2.48c-0.883,1.11-2.377,1.72-3.87,1.88c-1.493,0.16-3.001-0.08-4.472-0.36
		c-1.45-0.29-2.896-0.62-4.249-1.18c-0.668-0.27-1.31-0.6-1.95-0.92c-0.943-0.48-1.894-0.97-2.698-1.62
		c-0.899-0.73-1.59-1.72-2.267-2.63C3030.815,891.12,3033.907,890.36,3036.661,889.51L3036.661,889.51z M3089.11,1097.62
		c-2.83-0.21-5.61-0.6-8.244-1.57c-1.689-0.62-3.453-1.69-3.705-3.34c-0.172-1.13,0.402-2.4-0.265-3.37
		c-0.254-0.37-0.661-0.63-1.085-0.83c-0.9-0.43-1.914-0.62-2.821-1.03s-1.751-1.14-1.796-2.07c-0.028-0.57,0.259-1.12,0.538-1.64
		c0.107-0.19,0.213-0.39,0.321-0.59c-5.145-4.9-5.912-13.08-0.066-19.18c4.921-5.13,5.581-9.97,3.755-16.04
		c-2.556-8.49-1.933-16.7,3.79-24.18c7.377-9.65,7.703-21.16,9.808-32.11c3.316-17.26,6.05-34.62,9.23-51.9
		c-0.83,2.61-1.224,4.16-1.377,5.01c-0.309,1.7-0.582,3.43-1.285,5.04c-0.551,1.26-1.351,2.41-2.211,3.51
		c-5.351,6.85-13.224,12.02-22.031,14.47c-9.742,2.71-20.883,1.95-29.348-3.23c-8.464-5.18-13.608-15.06-11.337-24.14
		c1.323-5.28,4.832-9.93,6.748-12.32c1.761-2.19,3.682-3.94,7.452-7.35c8.735-7.88,11.5-8.26,13.628-12.81
		c0.583-1.25,2.041-4.48,1.384-8.59c-0.351-2.19-1.188-3.89-1.835-4.98c1.092,1.03,2.706,2.84,3.652,5.46
		c1.593,4.4,0.268,8.27-0.335,9.94c-1.913,5.32-4.729,7.06-11.484,13.16c-4.397,3.98-8.782,8.38-10.218,13.88
		c-2.145,8.21,3.889,17.48,12.808,19.67c3.563,0.88,7.34,0.73,10.982,0.2c6.794-1.01,13.663-3.56,17.844-8.56
		c2.539-3.04,3.906-6.75,5.071-10.42c2.626-8.27,4.454-16.78,7.759-24.85c0.096-0.23,0.2-0.47,0.3-0.71
		c3.236-13.52,11.128-25.91,22.079-34.5c2.628-2.07,5.441-3.92,8.517-5.23c8.791-3.72,18.765-2.6,28.268-3.51
		c7.849-0.75,15.547-2.97,22.62-6.46c5.693-5.4,11.369-10.81,17.02-16.24c10.828-10.42,23.122-18.63,37.613-24.69
		c0.052-0.02,0.103-0.04,0.155-0.07c7.124-4.39,14.131-8.94,20.812-13.88c6.367-4.7,13.049-10,21.209-10.56
		c6.27-0.43,12.28,2.06,17.97,4.56c-5.04-3.48-11.78-6.47-18.01-7.22c-5.55-0.66-11.42-0.53-16.948,0.33
		c-1.717,0.27-3.417,0.47-5.105,0.61c-4.666,1.38-9.333,2.55-14.067,1.71c-0.553-0.1-1.183-0.29-1.373-0.78
		c-2.158-0.28-4.397-0.02-6.412,0.74c-1.805,0.68-3.428,1.76-5.296,2.28c-2.75,0.77-5.754,0.25-8.426-0.72
		c-0.545-0.2-1.095-0.42-1.52-0.79c-0.524-0.46-0.809-1.09-1.094-1.7c-2.143-4.57-5.05-8.84-8.59-12.61
		c-2.249-2.4-4.773-4.63-6.482-7.37c-1.395-2.24-2.154-4.96-1.587-7.43l-0.132-0.02c0.061-0.04,0.11-0.09,0.167-0.14
		c0.126-0.5,0.289-1,0.535-1.47c0.331-0.64,0.767-1.21,1.259-1.75c0.077-0.26,0.152-0.52,0.227-0.77
		c0.439-1.51,1.131-3.15,2.683-3.8c0.659-0.28,1.398-0.33,2.104-0.48c1.111-0.23,2.148-0.69,3.166-1.15
		c0.408-0.19,0.807-0.39,1.212-0.58c1.289-0.87,2.578-1.73,3.866-2.59c1.222-1.37,2.484-2.7,3.769-3.99
		c7.163-7.18,14.213-14.38,19.148-22.98c0-0.01,0-0.01,0-0.01c-0.083-0.69-0.442-1.39-1.1-1.74c-0.34,0.94-0.649,1.88-0.93,2.84
		c-0.156-1.64-0.095-3.14,0.509-4.7c0.245-0.63,0.611-1.22,0.975-1.8c3.056-4.9,6.278-9.85,8.106-15.19
		c0.137-0.81,0.269-1.62,0.399-2.44c-6.566-1.31-12.836-4.2-17.301-8.87c-13.002-13.57-1.732-30.89,12.508-39.46
		c-3.839,3.99-6.848,8.63-7.566,14.33c-0.515,4.09,0.325,8.11,3.291,11.11c0.298,0.3,0.61,0.58,0.93,0.85
		c2.356,3.64,6.99,4.59,12.038,5.95c0.52-0.85,1.1-1.67,1.762-2.44c18.725,3.52,38.195,1.3,58.455-6.97c0.3,0.16,0.62,0.29,0.97,0.4
		c1.61,0.5,3.14,1.29,4.64,2.17c8.64-1.9,15.89-3.96,21.48-5.72c17.02-5.35,20.75-8.55,22.85-12.02c2.64-4.38,2.42-8.75,2.25-11.55
		c-0.98-15.3-15.43-25.28-18.87-27.53c3.04,0.57,7.41,1.7,12.12,4.11c2.61,1.34,14.63,7.85,19.55,21.68
		c1.19,3.34,3.83,11.11,0.87,20.41c-0.48,1.48-2.78,8.3-9.69,14.4c-4.28,3.77-8.99,6.09-13.24,7.51c1.61-0.24,3.22-0.44,4.84-0.56
		c1.34-0.1,2.68-0.17,4.02-0.3c3.89-0.38,7.68-1.35,11.45-2.32c1.18,6.57-0.75,13.66-5.61,18.62c-2.16,2.2-4.81,3.95-7.29,5.84
		c-1.19,0.9-2.37,1.87-3.04,3.15c-0.66,1.27-0.69,2.92,0.33,3.98c0.48,0.31,1.16,0.77,1.97,1.33
		c40.89,28.29,65.74,81.25,60.45,131.14c-3.28,30.87-17.15,55.22-20.75,60.36c-2.68,3.83-5.64,7.49-7.9,11.72
		c4.84-5,9.69-10.84,14.14-17.61c20.29-30.93,20.12-63.07,18.42-80.14c6.4,31.66,1.88,53.72-3.8,68.35
		c-4.14,10.65-7.73,14.36-10.39,26.58c-3.1,14.29-1.4,23.98-7.17,45.66c-1.1,4.14-0.33,3.37-1.68,5.94
		c-8.15,15.55-4.54,31.27-0.35,46.78c1.83,6.8,4.14,13.37,3.15,20.45c-1.66,12.05,4.73,21.71,11.11,31.33
		c3.33,5.02,7.47,9.68,8.66,15.74c1.47,4.25,2.27,8.63,1.65,12.95c34.59,4.52,68.87,10.54,102.58,18.16
		c39.42-53.97,62.7-120.47,62.7-192.42c0-180.37-146.22-326.59-326.59-326.59c-180.372,0-326.592,146.22-326.592,326.59
		c0,73.45,24.251,141.23,65.176,195.79C3027.85,1113.43,3058.216,1104.41,3089.11,1097.62L3089.11,1097.62z"/>
	<path fill="#211915" d="M3386.65,1099.19c0.03-0.19,0.07-0.39,0.11-0.58c-2.8-0.75-5.61-1.83-8.44-3.3
		c-3.17-1.64-4.67-3.47-3.81-7.22c1.62-7.1,2.67-14.34,3.52-21.56c0.28-2.33-0.08-5.25-1.42-7.14
		c-10.08-14.13-13.36-29.86-14.28-46.35c-0.05-0.85-0.11-1.7-0.17-2.55c-0.57-1.99-1.23-3.95-2.04-5.87
		c-1.8-4.23-4.41-8.26-8.15-11.24c-1.09-0.86-2.32-1.71-2.75-2.97c-0.77-0.2-1.49-0.55-2.1-1.02c3.73-2.42,7.08-5.32,10.05-8.53
		c-3.82,2.87-9.33,6.36-16.61,9.15c-7.08,2.7-13.46,3.83-18.15,4.33c-0.4-1.45-0.73-3.08-0.91-4.86
		c-0.58-5.71,0.62-10.51,1.81-13.77c-2.75,4.6-3.41,8.34-3.5,10.92c-0.1,2.8,0.44,5.37-0.65,9.49c-0.53,2.01-0.7,1.56-1.47,4.22
		c0,0-1.56,4.72-0.65,9.88c0.09,0.55,0.22,1.12,0.59,1.57c0.26,0.32,0.63,0.56,0.9,0.86c0.49,0.54,0.67,1.24,0.86,1.91
		c1.15,3.87,3.32,7.41,5.48,10.9c2.22,3.61,4.45,7.21,6.67,10.82c0.4,0.47,0.79,0.93,1.17,1.41c1.48,1.85,2.87,3.77,4.23,5.7
		c0.72,1.01,1.43,2.02,1.9,3.14s0.69,2.31,0.88,3.49c1.73,11.26,0.01,22.96-4.9,33.4c-5.52-2.67-10.66-6-15.28-9.84
		c-0.06-0.04-0.12-0.07-0.18-0.11c-2.39-1.44-4.8-2.89-6.82-4.74c-2.01-1.85-3.64-4.16-4.11-6.74c-0.59-0.35-1.36-0.37-1.98-0.66
		c-0.64-0.31-1.05-0.93-1.22-1.57c-0.16-0.65-0.11-1.32-0.04-1.98c0.4-3.44,1.49-6.81,3.21-9.89c0.8-1.45-2.39-2.26-4.11-2.65
		c-1.03-0.24-2.06-0.47-3.09-0.71c-0.75-0.17-1.53-0.35-2.16-0.76c-1.03-0.66-1.53-1.85-1.64-3s0.1-2.3,0.23-3.45
		c0.91-8.69-4.42-17.67-12.88-21.71c-1.35-0.65-2.89-1.31-3.39-2.61c-0.19-0.52-0.2-1.07-0.23-1.61c-0.18-2.79-1.26-5.46-1.92-8.18
		c-0.67-2.73-0.88-5.72,0.54-8.2c0.12-0.21,0.27-0.4,0.41-0.6c-0.99-6.56,0.4-13.05,3.9-19.31c0.87-1.55,1.37-3.05,1.56-4.53
		c-3.32,5.47-5.86,11.35-7.5,17.42c-0.51,1.91-0.88,4.11,0.39,5.7c-1.42,2.26-1.98,4.95-1.59,7.53c-0.68-0.29-1.35-0.61-2-0.95
		c0.04,0.26,0.09,0.52,0.14,0.78c-7.01-2.86-14.53-5.61-21.758-9.52c-6.924-3.75-13.8-7.7-21.475-10.7
		c-6.421,6.32-14.164,13.12-17.862,22.18c-1.618,3.97-0.599,9.45,0.909,13.75c3.828,10.91,12.066,19.34,20.333,27.73
		c6.735,6.83,13.172,13.92,19.545,21.04c4.811,3.38,9.098,7.35,11.968,12.2c0.62,1.04,1.17,2.12,1.53,3.26
		c0.01,0.04,0.02,0.08,0.03,0.12c27.7,0.58,55.38,2.43,82.87,5.42c-17.09,2.29-34.17,4.57-51.26,6.86
		C3328.85,1094.34,3357.82,1096.26,3386.65,1099.19L3386.65,1099.19z"/>
	<path fill="#211915" d="M3439.32,1127.96c27.16,2.18,47.16,4.76,73.16,8.15c28.49,3.72,66.58,9.18,111.85,17.14
		c-26.08-7.97-61.82-17.72-104.9-25.91c-60.12-11.44-105.67-14.37-151.96-17.18c-65.24-3.97-119.463-7.43-189.557-0.45
		c-81.923,8.15-143.122,25.88-143.538,24.41c-0.258-0.92,23.291-7.81,129.914-34.53c-20.302,1.83-48.166,5.24-80.835,12.07
		c-27.457,5.73-50.197,12.19-78.565,21.19c-37.27,11.82-90.619,30.03-156.889,56.9c50.808-12.1,101.615-24.19,152.422-36.29
		c-4.114,1.39-8.255,2.82-12.422,4.29c-27.122,9.54-52.468,19.67-76,30c22.785-7.48,50.344-14.48,82-18.5
		c14.758-1.88,28.696-2.88,41.689-3.29c55.804,51.81,114.882,71.07,127.727,75.06c17.655,5.49,52.117,14.52,96.584,14.52
		c96.72,0,183.61-42.06,243.41-108.87c-50.33-4.62-104.6-7.5-162.38-7.67c-107.811-0.32-202.948,8.9-281.915,20.96
		c70-17.76,168.509-35.74,287.265-35.71C3393.3,1124.26,3439.32,1127.96,3439.32,1127.96L3439.32,1127.96z"/>
</g>
<g>
	<path d="M43.81,42.309l-3.509,1.579c-1.279,0.576-2.796-0.075-3.188-1.368l-0.327-1.08c-0.218-0.716,0.446-1.394,1.213-1.24
		l5.692,1.144C44.196,41.446,44.277,42.099,43.81,42.309L43.81,42.309z M56.309,41.344l5.692-1.144
		c0.767-0.154,1.43,0.524,1.213,1.24l-0.327,1.08c-0.392,1.293-1.909,1.944-3.187,1.368l-3.51-1.579
		C55.723,42.099,55.804,41.446,56.309,41.344L56.309,41.344z M60.904,54.888c0,8.687-6.771,13.681-10.904,13.681
		c-3.719,0-10.904-4.994-10.904-13.681c0-8.688,4.882-9.482,10.904-9.482S60.904,46.2,60.904,54.888L60.904,54.888z M50,3.112
		c25.854,0,46.888,21.034,46.888,46.888c0,10.283-3.33,19.802-8.965,27.539c-4.158-6.005-6.991-12.833-8.118-20.058
		c-0.878-5.628-1.898-10.86-3.038-15.616c-0.366-1.522,0.031-3.099,1.057-4.355c0.729-0.893,1.399-1.881,1.984-2.951
		c3.329-6.088,2.666-12.509-1.481-14.341c-2.726-1.205-6.28-0.126-9.341,2.485c-2.885,2.462-6.878,3.58-10.765,2.821
		C55.67,25.025,52.9,24.686,50,24.601c-2.899,0.085-5.67,0.424-8.221,0.923c-3.887,0.759-7.88-0.359-10.765-2.821
		c-3.061-2.611-6.614-3.69-9.341-2.485c-4.146,1.831-4.809,8.252-1.481,14.341c0.585,1.07,1.255,2.058,1.985,2.951
		c1.026,1.256,1.422,2.833,1.057,4.355c-1.116,4.651-2.116,9.758-2.981,15.245c-1.157,7.341-3.91,14.356-8.173,20.434
		C6.443,69.806,3.112,60.285,3.112,50C3.112,24.146,24.146,3.112,50,3.112L50,3.112z M85.355,14.645C75.912,5.201,63.355,0,50,0
		S24.089,5.201,14.645,14.645C5.201,24.089,0,36.645,0,50s5.201,25.911,14.645,35.355S36.645,100,50,100s25.912-5.201,35.355-14.645
		C94.799,75.911,100,63.355,100,50S94.799,24.089,85.355,14.645L85.355,14.645z"/>
	<path d="M44.491,50.544c0,2.01,2.974,3.74,4.552,4.517l-0.244,2.438c-0.035,0.354-0.241,0.674-0.549,0.854
		c-1.273,0.742-4.872,2.144-4.771,2.619c0.087,0.415,4.222-0.26,5.659-1.098C49.479,59.676,49.77,59.41,50,59.1
		c0.23,0.31,0.521,0.576,0.862,0.774c1.436,0.838,5.572,1.514,5.659,1.098c0.1-0.475-3.499-1.877-4.772-2.619
		c-0.308-0.18-0.513-0.499-0.549-0.854l-0.243-2.438c1.578-0.777,4.551-2.507,4.551-4.517c0-2.735-2.466-2.506-5.509-2.506
		S44.491,47.809,44.491,50.544L44.491,50.544z"/>
</g>
</svg>
