<?xml version="1.0" encoding="utf-8"?>
<!-- Generator: Adobe Illustrator 24.0.2, SVG Export Plug-In . SVG Version: 6.00 Build 0)  -->
<svg version="1.1" id="Capa_1" xmlns="http://www.w3.org/2000/svg" xmlns:xlink="http://www.w3.org/1999/xlink" x="0px" y="0px"
	 viewBox="0 0 141.73 141.73" style="enable-background:new 0 0 141.73 141.73;" xml:space="preserve">
<g>
	<path d="M66.48,29.83c-20.93,0-37.97,18.41-37.97,41.04c0,22.63,17.03,41.04,37.97,41.04c20.93,0,37.96-18.41,37.96-41.04
		C104.44,48.24,87.41,29.83,66.48,29.83z M66.48,109.9c-19.83,0-35.97-17.51-35.97-39.04c0-21.52,16.13-39.04,35.97-39.04
		c19.83,0,35.96,17.51,35.96,39.04C102.44,92.39,86.31,109.9,66.48,109.9z"/>
	<path d="M75.26,21.32h-6.81v0.05c-0.65-0.03-1.31-0.05-1.97-0.05c-25.27,0-45.82,22.23-45.82,49.55s20.56,49.55,45.82,49.55
		c0.37,0,0.74-0.02,1.12-0.03v0.03h7.67c25.27,0,45.82-22.23,45.82-49.55S100.52,21.32,75.26,21.32z M22.65,70.87
		c0-26.22,19.66-47.55,43.82-47.55c24.16,0,43.82,21.33,43.82,47.55s-19.66,47.55-43.82,47.55C42.31,118.41,22.65,97.08,22.65,70.87
		z M80.37,118.08c18.5-6.38,31.93-25.13,31.93-47.22S98.86,30.03,80.37,23.65c21.77,2.76,38.72,22.87,38.72,47.22
		S102.13,115.33,80.37,118.08z"/>
	<path d="M68.36,72.26h-5.23v17.6h6.18c3.57,0,7.83-1.5,7.83-8.66C77.14,75.27,74.19,72.26,68.36,72.26z M69.31,87.86h-4.18v-13.6
		h3.23c4.75,0,6.78,2.08,6.78,6.94C75.14,85.81,73.34,87.86,69.31,87.86z"/>
	<path d="M80,69.5c1.94-1.35,4.44-4.23,4.44-10.06c0-6.76-3.49-11.39-9.62-12.82v-6.41h-8.21v5.93h-3.6v-5.93h-8.21v5.93h-5.26v8.9
		h5.08v32.7h-5.08v8.9h5.26v6.41h8.21v-6.41h3.6v6.41h8.21v-6.92c6.92-1.63,11.02-7.09,11.02-14.75C85.85,74.75,82.97,71.3,80,69.5z
		 M73.64,94.33l-0.82,0.15v6.56h-4.21v-6.41h-7.6v6.41h-4.21v-6.41h-5.26v-4.9h5.08v-36.7h-5.08v-4.9h5.26v-5.93h4.21v5.93h7.6
		v-5.93h4.21v6.06l0.82,0.15c5.67,1.02,8.8,4.94,8.8,11.02c0,6.59-3.46,8.6-4.95,9.16l-2.39,0.89l2.36,0.97
		c4.24,1.74,6.39,5.41,6.39,10.91C83.85,88.39,80.13,93.11,73.64,94.33z"/>
	<path d="M76.12,60.23c0-4.7-2.59-7.19-7.5-7.19h-5.49v14.45h5.19C73.86,67.49,76.12,65.39,76.12,60.23z M65.13,55.04h3.49
		c3.8,0,5.5,1.6,5.5,5.19c0,3.57-0.87,5.26-5.8,5.26h-3.19V55.04z"/>
</g>
</svg>
