<?xml version="1.0" encoding="utf-8"?>
<!-- Generator: Adobe Illustrator 24.0.2, SVG Export Plug-In . SVG Version: 6.00 Build 0)  -->
<svg version="1.1" id="Capa_1" xmlns="http://www.w3.org/2000/svg" xmlns:xlink="http://www.w3.org/1999/xlink" x="0px" y="0px"
	 viewBox="0 0 141.73 141.73" style="enable-background:new 0 0 141.73 141.73;" xml:space="preserve">
<path d="M111.29,102.44c-0.1-0.33,0-0.7,0.23-0.95c4.85-5.04,7.42-11.04,7.42-17.36c0-8.78-4.99-16.65-12.82-21.89
	c0.08-0.84,0.13-1.69,0.13-2.54c0-18.38-18.73-33.32-41.74-33.32c-23,0-41.72,14.95-41.72,33.32c0,7.37,2.99,14.37,8.65,20.25
	c0.32,0.33,0.44,0.84,0.31,1.28c-1.59,5.35-4.2,9.87-6.11,12.73l-1.41,2.11l2.47-0.58c4.52-1.07,9.2-3.61,13.9-7.57
	c0.4-0.34,0.97-0.41,1.44-0.17c2.03,1.04,4.16,1.91,6.35,2.65c3.58,12.74,17.84,22.3,34.85,22.3c6.8,0,13.44-1.56,19.21-4.52
	c0.35-0.17,0.77-0.12,1.07,0.12c4.02,3.39,8.03,5.57,11.91,6.48l2.47,0.58l-1.41-2.11C114.86,110.82,112.64,106.98,111.29,102.44z
	 M42.95,85.95L42.95,85.95c-1.19-0.6-2.61-0.43-3.63,0.42c-3.58,3.01-7.12,5.16-10.56,6.4c1.72-2.87,3.64-6.67,4.92-10.99
	c0.33-1.14,0.03-2.38-0.79-3.23c-5.3-5.5-8.09-12.02-8.09-18.86c0-17.27,17.82-31.32,39.72-31.32c21.91,0,39.74,14.05,39.74,31.32
	c0,0.45-0.02,0.9-0.04,1.35c-5.89-3.43-13.14-5.46-20.97-5.46c-19.7,0-35.72,12.81-35.72,28.55c0,1.35,0.13,2.67,0.35,3.97
	C46.18,87.48,44.53,86.77,42.95,85.95z M49.52,84.14c0-14.64,15.13-26.55,33.72-26.55c7.82,0,15.03,2.12,20.75,5.65
	c-2.24,15.61-19.09,27.78-39.48,27.78c-4.97,0-9.86-0.76-14.46-2.19C49.71,87.31,49.52,85.74,49.52,84.14z M104.8,106.76
	c-0.55-0.46-1.23-0.7-1.91-0.7c-0.46,0-0.92,0.1-1.34,0.32c-5.49,2.81-11.83,4.3-18.31,4.3c-15.53,0-28.63-8.31-32.53-19.57
	c4.42,1.25,9.08,1.91,13.81,1.91c21,0,38.41-12.44,41.31-28.57c6.82,4.86,11.12,11.89,11.12,19.69c0,5.79-2.37,11.32-6.86,15.97
	c-0.74,0.77-1.01,1.88-0.71,2.9c1.04,3.52,2.58,6.63,3.99,9.04C110.58,110.98,107.7,109.21,104.8,106.76z"/>
</svg>
