<?xml version="1.0" encoding="utf-8"?>
<!-- Generator: Adobe Illustrator 24.0.2, SVG Export Plug-In . SVG Version: 6.00 Build 0)  -->
<svg version="1.1" id="Capa_1" xmlns="http://www.w3.org/2000/svg" xmlns:xlink="http://www.w3.org/1999/xlink" x="0px" y="0px"
	 viewBox="0 0 141.73 141.73" style="enable-background:new 0 0 141.73 141.73;" xml:space="preserve">
<g>
	<polygon points="107.92,117.92 107.92,112.06 105.92,112.06 105.92,117.92 87.97,117.92 87.97,112.06 85.97,112.06 85.97,117.92 
		66.6,117.92 66.6,112.06 64.6,112.06 64.6,117.92 46.65,117.92 46.65,112.06 44.65,112.06 44.65,117.92 28.18,117.92 28.18,100.36 
		35.05,100.36 35.05,98.36 28.18,98.36 28.18,81.17 35.05,81.17 35.05,79.17 28.18,79.17 28.18,61.64 35.05,61.64 35.05,59.64 
		28.18,59.64 28.18,42.45 35.05,42.45 35.05,40.45 28.18,40.45 28.18,21.81 26.18,21.81 26.18,119.92 115.55,119.92 115.55,117.92 	
		"/>
	<path d="M45.65,71.67c3.08,0,5.58-2.51,5.58-5.58c0-1.46-0.57-2.79-1.49-3.79l14.31-22.54c0.69,0.31,1.46,0.48,2.26,0.48
		c0.89,0,1.74-0.22,2.49-0.59L82.28,57.9c-0.56,0.87-0.89,1.9-0.89,3.02c0,3.08,2.51,5.59,5.58,5.59c0.64,0,1.26-0.11,1.83-0.31
		l7.03,12.91l-3.65,2.89c-0.19-0.26-0.4-0.51-0.65-0.73c-1.09-1.02-2.52-1.56-4-1.5c-1.42,0.05-2.7,0.63-3.66,1.55l-12.49-8.6
		c0.45-0.84,0.69-1.8,0.66-2.82c-0.11-3.08-2.68-5.49-5.78-5.39c-3.08,0.11-5.49,2.7-5.39,5.78c0.04,1.13,0.41,2.17,1.02,3.03
		l-13.7,18.12c-0.85-0.44-1.79-0.66-2.75-0.62c-1.49,0.05-2.87,0.68-3.89,1.77s-1.55,2.51-1.5,4c0.11,3.01,2.59,5.39,5.58,5.39
		c0.06,0,0.13,0,0.2,0c1.49-0.05,2.87-0.68,3.89-1.77s1.55-2.51,1.5-4c-0.05-1.33-0.57-2.55-1.45-3.53l13.57-17.95
		c0.89,0.6,1.96,0.96,3.11,0.96c0.07,0,0.13,0,0.2,0c1.34-0.05,2.55-0.56,3.49-1.38l12.56,8.64c-0.38,0.79-0.58,1.68-0.55,2.61
		c0.1,3.01,2.59,5.39,5.58,5.39c0.06,0,0.13,0,0.2,0c3.08-0.11,5.49-2.7,5.39-5.78c-0.02-0.46-0.1-0.89-0.22-1.32l3.71-2.95
		l6.8,12.48c-1.38,1.02-2.27,2.65-2.27,4.49c0,3.08,2.51,5.58,5.58,5.58s5.58-2.51,5.58-5.58s-2.51-5.58-5.58-5.58
		c-0.53,0-1.03,0.08-1.52,0.21l-7.01-12.86l5.5-4.37c1.02,1.07,2.44,1.74,4.02,1.74c0.07,0,0.13,0,0.2,0
		c1.49-0.05,2.87-0.68,3.89-1.77s1.55-2.51,1.5-4c-0.05-1.49-0.68-2.87-1.77-3.89s-2.51-1.54-4-1.5c-1.49,0.05-2.87,0.68-3.89,1.77
		c-1.02,1.09-1.55,2.51-1.5,4c0.02,0.7,0.19,1.37,0.45,1.98l-5.37,4.26l-6.88-12.63c1.23-1.03,2.01-2.57,2.01-4.29
		c0-3.08-2.51-5.58-5.58-5.58c-1.23,0-2.37,0.41-3.3,1.09L70.4,38.45c0.93-1,1.5-2.33,1.5-3.79c0-3.08-2.51-5.58-5.58-5.58
		s-5.58,2.51-5.58,5.58c0,1.56,0.64,2.96,1.67,3.98L48.14,61.09c-0.75-0.38-1.59-0.59-2.49-0.59c-3.08,0-5.58,2.51-5.58,5.58
		S42.57,71.67,45.65,71.67z M48.27,98.83c-0.65,0.7-1.54,1.1-2.5,1.14c-1.99,0.03-3.64-1.48-3.71-3.46
		c-0.03-0.96,0.31-1.87,0.96-2.57c0.65-0.7,1.54-1.1,2.5-1.14c0.95-0.03,1.87,0.31,2.57,0.96c0.7,0.65,1.1,1.54,1.14,2.5
		C49.27,97.22,48.92,98.13,48.27,98.83z M66.59,73.67c-1.98,0.03-3.64-1.48-3.71-3.46c-0.07-1.98,1.48-3.64,3.46-3.71
		c0.04,0,0.08,0,0.13,0c1.92,0,3.51,1.53,3.58,3.46C70.12,71.94,68.57,73.6,66.59,73.67z M87.86,88.93
		c-1.98,0.03-3.64-1.48-3.71-3.46c-0.03-0.96,0.31-1.87,0.96-2.57c0.65-0.7,1.54-1.1,2.5-1.14c0.95-0.03,1.87,0.31,2.57,0.96
		s1.1,1.54,1.14,2.5C91.39,87.19,89.83,88.86,87.86,88.93z M110.5,97.85c0,1.98-1.61,3.58-3.58,3.58s-3.58-1.61-3.58-3.58
		s1.61-3.58,3.58-3.58S110.5,95.87,110.5,97.85z M104.34,71.53c-0.03-0.96,0.31-1.87,0.96-2.57s1.54-1.1,2.5-1.14
		c0.04,0,0.08,0,0.13,0c0.91,0,1.77,0.34,2.44,0.96c0.7,0.65,1.1,1.54,1.14,2.5c0.03,0.96-0.31,1.87-0.96,2.57
		c-0.65,0.7-1.54,1.1-2.5,1.14C106.06,75.02,104.41,73.5,104.34,71.53L104.34,71.53z M86.97,57.33c1.98,0,3.58,1.61,3.58,3.58
		c0,1.98-1.61,3.59-3.58,3.59s-3.58-1.61-3.58-3.59C83.39,58.94,84.99,57.33,86.97,57.33z M66.31,31.07c1.98,0,3.58,1.61,3.58,3.58
		c0,1.98-1.61,3.59-3.58,3.59s-3.58-1.61-3.58-3.59C62.73,32.68,64.33,31.07,66.31,31.07z M45.65,62.5c1.98,0,3.58,1.61,3.58,3.58
		s-1.61,3.58-3.58,3.58s-3.58-1.61-3.58-3.58S43.67,62.5,45.65,62.5z"/>
</g>
</svg>
