<?xml version="1.0" encoding="utf-8"?>
<!-- Generator: Adobe Illustrator 24.0.2, SVG Export Plug-In . SVG Version: 6.00 Build 0)  -->
<svg version="1.1" id="Capa_1" xmlns="http://www.w3.org/2000/svg" xmlns:xlink="http://www.w3.org/1999/xlink" x="0px" y="0px"
	 viewBox="0 0 141.73 141.73" style="enable-background:new 0 0 141.73 141.73;" xml:space="preserve">
<g>
	<path d="M106.14,54.52c0.41-1.33,0.22-2.57-0.54-3.6c-1.79-2.43-5.32-1.57-10.18,0.35c-0.7-6.26-3.62-27.96-10.74-29.35
		c-5.48-1.07-7.34,1.03-8.99,2.88c-1.2,1.35-2.24,2.52-4.83,2.52c-2.59,0-3.63-1.17-4.83-2.52c-1.65-1.85-3.52-3.94-8.99-2.88
		C49.92,23.31,47,45.01,46.3,51.27c-4.86-1.92-8.39-2.79-10.18-0.35c-0.76,1.03-0.94,2.26-0.53,3.57c0.95,3.01,4.98,6.06,10.91,8.32
		c0.63,6.19,3.41,13.09,7.55,18.59c1.17,1.56,2.41,2.94,3.69,4.15l-0.94,9.88c-3.21,0.75-14.54,3.58-17.55,6.94
		c-3.52,3.92-1.88,15.58-1.68,16.9l0.13,0.85h32.16h2h32.17l0.13-0.85c0.2-1.32,1.84-12.98-1.68-16.9
		c-1.7-1.89-6.06-3.87-12.95-5.86l-0.96-0.28l-0.07,0.23c-0.75-0.77-1.77-1.24-2.87-1.27l-0.56-2.6l-0.64-4.3
		c8.62-2.47,14.04-11.23,12.18-20.15c-0.35-1.7-0.95-3.31-1.76-4.79C100.99,60.95,105.17,57.69,106.14,54.52z M57.43,23.88
		c4.35-0.85,5.63,0.58,7.11,2.24c1.33,1.49,2.84,3.18,6.32,3.18c3.49,0,4.99-1.69,6.33-3.18c1.54-1.73,2.75-3.1,7.11-2.24
		c4.7,0.92,8.08,17.43,9.2,28.17c-0.59,0.24-1.19,0.5-1.81,0.76c-1.89,0.79-3.84,1.61-5.89,2.39l0.12,0.31
		c-3.09-1.2-6.46-1.5-9.78-0.81c-2.87,0.6-5.47,1.88-7.65,3.72c-6.46-0.57-13.11-3.37-18.45-5.61c-0.62-0.26-1.22-0.51-1.81-0.76
		C49.35,41.31,52.73,24.8,57.43,23.88z M37.5,53.88c-0.22-0.69-0.14-1.27,0.24-1.78c1.29-1.75,6.26,0.34,11.53,2.56
		c5.03,2.12,11.2,4.69,17.43,5.55c-0.54,0.61-1.05,1.26-1.51,1.95c-0.57,0.88-1.05,1.8-1.45,2.74c-4.91-0.55-9.82-1.66-14.98-3.41
		C41.44,59.02,38.12,55.84,37.5,53.88z M48.59,63.54c4.96,1.65,9.7,2.73,14.44,3.29c-0.78,2.68-0.9,5.53-0.32,8.35
		c1.42,6.82,6.7,11.86,13.07,13.33c-1.63,0.61-3.28,0.92-4.92,0.92C60.07,89.43,50.24,75.64,48.59,63.54z M70.87,91.43
		c2.9,0,5.79-0.84,8.59-2.47c0.07,0,0.13,0.01,0.2,0.01c0.84,0,1.69-0.08,2.55-0.21l0.9,4.17l0.4,2.67l-12.63,5.06L58.8,95.59
		l0.8-8.45C63.16,89.94,67.01,91.43,70.87,91.43z M39.43,118.11c-0.48-3.83-0.96-11.89,1.31-14.41c2.4-2.67,12.74-5.47,16.9-6.42
		l12.22,5.12v15.7H39.43z M71.87,102.41l9.53-3.82c-0.09,0.52-0.1,1.06,0.01,1.6l3.39,16.3c0.12,0.59,0.38,1.14,0.73,1.61H71.87
		V102.41z M100.99,103.69c2.26,2.52,1.79,10.58,1.31,14.41H92.26c0.68-0.92,0.99-2.11,0.74-3.32l-3.36-16.18
		C95.61,100.39,99.64,102.18,100.99,103.69z M87.64,98.9l3.39,16.3c0.25,1.18-0.51,2.34-1.69,2.58c-0.57,0.12-1.15,0.01-1.64-0.32
		c-0.49-0.32-0.83-0.81-0.94-1.38l-3.39-16.3c-0.25-1.18,0.51-2.34,1.69-2.58C86.24,96.96,87.4,97.72,87.64,98.9z M82.78,86.65
		c-8.27,1.72-16.39-3.61-18.11-11.88c-0.83-4-0.06-8.09,2.19-11.51c2.24-3.42,5.68-5.76,9.69-6.6c1.05-0.22,2.1-0.33,3.15-0.33
		c2.95,0,5.84,0.86,8.37,2.51c3.42,2.24,5.76,5.68,6.59,9.69C96.37,76.8,91.05,84.93,82.78,86.65z M93.76,61.62
		c-1.23-1.73-2.78-3.24-4.61-4.44c-0.38-0.25-0.78-0.47-1.17-0.69c1.54-0.61,3.04-1.23,4.48-1.84c5.27-2.22,10.24-4.31,11.53-2.55
		c0.38,0.51,0.45,1.11,0.23,1.83C103.63,55.9,100.51,59.05,93.76,61.62z"/>
	<path d="M85.77,62.35c-2.49-1.63-5.46-2.2-8.37-1.59c-2.91,0.61-5.41,2.31-7.04,4.8c-1.63,2.49-2.2,5.46-1.59,8.37
		c0.61,2.91,2.31,5.41,4.8,7.04c1.84,1.2,3.94,1.83,6.08,1.83c0.76,0,1.53-0.08,2.29-0.24c6.01-1.25,9.88-7.16,8.63-13.17
		C89.96,66.48,88.25,63.98,85.77,62.35z M81.52,80.6c-2.39,0.5-4.83,0.03-6.87-1.3c-2.04-1.34-3.44-3.39-3.93-5.78
		c-0.5-2.39-0.03-4.83,1.3-6.87c1.34-2.04,3.39-3.44,5.78-3.93c0.62-0.13,1.25-0.19,1.88-0.19c1.76,0,3.48,0.51,4.99,1.5
		c2.04,1.34,3.44,3.39,3.93,5.78C89.63,74.73,86.45,79.57,81.52,80.6z"/>
</g>
</svg>
