<?xml version="1.0" encoding="utf-8"?>
<!-- Generator: Adobe Illustrator 24.0.2, SVG Export Plug-In . SVG Version: 6.00 Build 0)  -->
<svg width="50px" height="50px" version="1.1" id="Capa_1" xmlns="http://www.w3.org/2000/svg" xmlns:xlink="http://www.w3.org/1999/xlink" x="0px" y="0px"
	 viewBox="0 0 141.73 141.73" style="enable-background:new 0 0 141.73 141.73;" xml:space="preserve">
<g>
	<path fill="current" d="M66.47,29.83c-20.93,0-37.96,18.41-37.96,41.04c0,22.63,17.03,41.04,37.96,41.04c20.93,0,37.96-18.41,37.96-41.04
		C104.44,48.24,87.41,29.83,66.47,29.83z M66.47,109.9c-19.83,0-35.96-17.51-35.96-39.04s16.13-39.04,35.96-39.04
		s35.96,17.51,35.96,39.04S86.31,109.9,66.47,109.9z"/>
	<path fill="current" d="M75.26,21.32h-6.81v0.05c-0.65-0.03-1.31-0.05-1.97-0.05c-25.27,0-45.82,22.23-45.82,49.55s20.56,49.55,45.82,49.55
		c0.37,0,0.74-0.02,1.12-0.03v0.03h7.67c25.27,0,45.82-22.23,45.82-49.55S100.52,21.32,75.26,21.32z M22.65,70.87
		c0-26.22,19.66-47.55,43.82-47.55c24.16,0,43.82,21.33,43.82,47.55s-19.66,47.55-43.82,47.55C42.31,118.41,22.65,97.08,22.65,70.87
		z M80.36,118.08c18.5-6.38,31.93-25.13,31.93-47.22S98.86,30.03,80.36,23.65c21.77,2.76,38.72,22.87,38.72,47.22
		S102.13,115.33,80.36,118.08z"/>
	<path fill="current" d="M69.98,64.19c-7.17-3.12-8.43-5.1-8.43-8.1c0-3.47,1.56-5.23,4.64-5.23c2.19,0,5.13,0.65,5.35,6.3l0.04,0.96h11.12
		l-0.03-1.03c-0.23-8.71-4.06-13.89-11.4-15.4v-4.53H62.1v4.48c-7.43,1.58-12.01,7.33-12.01,15.19c0,7.58,2.33,12.7,14.6,18.03
		c6.22,2.74,7.31,4.92,7.31,8.5c0,2.62-0.91,5.74-5.23,5.74c-4.03,0-5.84-2.2-6.06-7.35l-0.04-0.96H49.33l0.02,1.02
		c0.23,9.61,4.52,15.18,12.75,16.57v6.17h9.16V98.3c7.97-1.57,12.34-7.26,12.34-16.11C83.6,73.45,79.78,68.4,69.98,64.19z
		 M70.1,96.48l-0.85,0.13v5.96H64.1v-5.91l-0.87-0.11c-7.48-0.96-11.36-5.46-11.84-13.74h7.39c0.5,5.51,3.19,8.31,8,8.31
		c4.53,0,7.23-2.89,7.23-7.74c0-4.93-2.15-7.53-8.51-10.34c-10.27-4.46-13.4-8.24-13.4-16.2c0-7.11,4.28-12.23,11.17-13.38
		l0.84-0.14v-4.16h5.16v4.21l0.84,0.14c6.6,1.07,10.05,5.2,10.52,12.61h-7.15c-0.58-5.97-4.23-7.26-7.28-7.26
		c-4.16,0-6.64,2.7-6.64,7.23c0,4.35,2.34,6.76,9.64,9.94c9.05,3.89,12.42,8.27,12.42,16.17C81.6,87.89,79.6,94.99,70.1,96.48z"/>
</g>
</svg>
