<?xml version="1.0" encoding="utf-8"?>
<!-- Generator: Adobe Illustrator 24.0.2, SVG Export Plug-In . SVG Version: 6.00 Build 0)  -->
<svg version="1.1" id="Capa_1" xmlns="http://www.w3.org/2000/svg" xmlns:xlink="http://www.w3.org/1999/xlink" x="0px" y="0px"
	 viewBox="0 0 141.73 141.73" style="enable-background:new 0 0 141.73 141.73;" xml:space="preserve">
<g>
	<path d="M66.48,29.83c-20.93,0-37.97,18.41-37.97,41.04c0,22.63,17.03,41.04,37.97,41.04c20.93,0,37.96-18.41,37.96-41.04
		C104.44,48.24,87.41,29.83,66.48,29.83z M66.48,109.9c-19.83,0-35.97-17.51-35.97-39.04c0-21.52,16.13-39.04,35.97-39.04
		c19.83,0,35.96,17.51,35.96,39.04C102.44,92.39,86.31,109.9,66.48,109.9z"/>
	<path d="M75.26,21.32h-6.81v0.05c-0.65-0.03-1.31-0.05-1.97-0.05c-25.27,0-45.82,22.23-45.82,49.55s20.56,49.55,45.82,49.55
		c0.37,0,0.74-0.02,1.12-0.03v0.03h7.67c25.27,0,45.82-22.23,45.82-49.55S100.52,21.32,75.26,21.32z M22.65,70.87
		c0-26.22,19.66-47.55,43.82-47.55c24.16,0,43.82,21.33,43.82,47.55s-19.66,47.55-43.82,47.55C42.31,118.41,22.65,97.08,22.65,70.87
		z M80.37,118.08c18.5-6.38,31.93-25.13,31.93-47.22S98.86,30.03,80.37,23.65c21.77,2.76,38.72,22.87,38.72,47.22
		S102.13,115.33,80.37,118.08z"/>
	<path d="M65.92,85.05l-17.88-12l-1.32,1.39l19.19,30.81l19.36-30.87l-1.57-1.26L65.92,85.05z M65.92,101.47L50.91,77.39l15,10.07
		L81.1,77.27L65.92,101.47z"/>
	<path d="M85.04,65.62L65.92,37.55L46.8,65.62l19.12,13.1L85.04,65.62z M65.92,41.1l16.35,24L65.92,76.3L49.57,65.1L65.92,41.1z"/>
</g>
</svg>
