<?xml version="1.0" encoding="utf-8"?>
<!-- Generator: Adobe Illustrator 24.0.2, SVG Export Plug-In . SVG Version: 6.00 Build 0)  -->
<svg width="50px" height="50px" version="1.1" id="Capa_1" xmlns="http://www.w3.org/2000/svg" xmlns:xlink="http://www.w3.org/1999/xlink" x="0px" y="0px"
	 viewBox="0 0 141.73 141.73" style="enable-background:new 0 0 141.73 141.73;" xml:space="preserve">
<g>
	<path fill="current" d="M66.48,29.83c-20.93,0-37.97,18.41-37.97,41.04c0,22.63,17.03,41.04,37.97,41.04c20.93,0,37.96-18.41,37.96-41.04
		C104.44,48.24,87.41,29.83,66.48,29.83z M66.48,109.9c-19.83,0-35.97-17.51-35.97-39.04c0-21.52,16.13-39.04,35.97-39.04
		c19.83,0,35.96,17.51,35.96,39.04C102.44,92.39,86.31,109.9,66.48,109.9z"/>
	<path fill="current" d="M75.26,21.32h-6.81v0.05c-0.65-0.03-1.31-0.05-1.97-0.05c-25.27,0-45.82,22.23-45.82,49.55s20.56,49.55,45.82,49.55
		c0.37,0,0.74-0.02,1.12-0.03v0.03h7.67c25.27,0,45.82-22.23,45.82-49.55S100.52,21.32,75.26,21.32z M22.65,70.87
		c0-26.22,19.66-47.55,43.82-47.55c24.16,0,43.82,21.33,43.82,47.55s-19.66,47.55-43.82,47.55C42.31,118.41,22.65,97.08,22.65,70.87
		z M80.37,118.08c18.5-6.38,31.93-25.13,31.93-47.22S98.86,30.03,80.37,23.65c21.77,2.76,38.72,22.87,38.72,47.22
		S102.13,115.33,80.37,118.08z"/>
	<path fill="current" d="M71.24,85.78c-0.62,4.85-2.42,7.1-5.67,7.1c-2.54,0-5.01-1.22-6.06-9.8h8.62V73.03h-9.17c-0.01-0.78-0.01-1.58-0.01-2.41
		c0-0.48,0-0.96,0.01-1.42h9.18V59.14h-8.56c1.13-7.99,3.65-9.13,6.22-9.13c4.05,0,4.99,3.26,5.06,6l0.03,0.97h10.86l-0.04-1.04
		c-0.15-3.72-1.73-15.88-15.87-15.88c-9.55,0-15.41,6.42-17.4,19.07h-5.85V69.2h5.06c-0.01,0.53-0.02,1.06-0.02,1.61
		c0,0.75,0.01,1.49,0.02,2.22h-5.06v10.06h5.72c1.74,13.5,7.11,19.8,16.87,19.8c13.78,0,16.37-11.81,16.84-16.89l0.1-1.09H71.35
		L71.24,85.78z M79.87,86.9c-1.58,12.13-9.85,13.98-14.73,13.98c-8.87,0-13.49-5.83-14.99-18.92l-0.1-0.89h-5.49v-6.06h5.11
		L49.64,74c-0.02-1.04-0.04-2.1-0.04-3.2c0-0.88,0.02-1.74,0.04-2.58l0.03-1.03h-5.11v-6.06h5.58l0.12-0.86
		c1.73-12.26,6.81-18.21,15.55-18.21c11.11,0,13.39,8.34,13.81,12.92h-6.84c-0.43-4.39-2.99-6.97-7-6.97
		c-4.87,0-7.37,3.59-8.34,12.02l-0.13,1.12h8.82v6.06h-9.15l-0.02,0.98c-0.01,0.78-0.02,1.59-0.02,2.44c0,1.2,0.01,2.33,0.03,3.43
		l0.02,0.98h9.14v6.06h-8.84l0.11,1.1c0.64,6.28,2.1,12.7,8.18,12.7c4.11,0,6.64-2.68,7.52-7.98H79.87z"/>
</g>
</svg>
