<?xml version="1.0" encoding="utf-8"?>
<!-- Generator: Adobe Illustrator 24.0.2, SVG Export Plug-In . SVG Version: 6.00 Build 0)  -->
<svg version="1.1" id="Capa_1" xmlns="http://www.w3.org/2000/svg" xmlns:xlink="http://www.w3.org/1999/xlink" x="0px" y="0px"
	 viewBox="0 0 141.73 141.73" style="enable-background:new 0 0 141.73 141.73;" xml:space="preserve">
<g>
	<path d="M120.42,64.6V35.12H37.51v48.43h12.27v29.48h82.91V64.6H120.42z M39.51,81.55V37.12h78.91V64.6h-4.98V53.18h-1
		c-5.16,0-9.36-4.2-9.36-9.36v-1H54.86v1c0,5.16-4.2,9.36-9.36,9.36h-1v12.31h1c1.5,0,2.96,0.38,4.29,1.06v15H39.51z M72.54,64.6
		c-1.21-1.48-1.89-3.34-1.89-5.26c0-4.58,3.73-8.31,8.31-8.31s8.31,3.73,8.31,8.31c0,1.93-0.67,3.78-1.89,5.26H72.54z M78.97,49.03
		c-5.69,0-10.31,4.63-10.31,10.31c0,1.86,0.51,3.68,1.45,5.26H50.38c-1.22-0.58-2.53-0.95-3.88-1.06v-8.4
		c5.47-0.48,9.84-4.85,10.32-10.32h44.3c0.48,5.47,4.85,9.84,10.32,10.32v8.4c-1.35,0.12-2.65,0.48-3.88,1.07H87.83
		c0.94-1.58,1.45-3.39,1.45-5.26C89.28,53.65,84.65,49.03,78.97,49.03z M130.69,111.03H51.78V66.6h78.91V111.03z"/>
	<path d="M67.13,104.33v1h48.22v-1c0-5.16,4.2-9.36,9.36-9.36h1V82.66h-1c-5.16,0-9.36-4.2-9.36-9.36v-1H67.13v1
		c0,5.16-4.2,9.36-9.36,9.36h-1v12.31h1C62.93,94.97,67.13,99.17,67.13,104.33z M58.77,84.62c5.47-0.48,9.84-4.85,10.32-10.32h44.3
		c0.48,5.47,4.85,9.84,10.32,10.32v8.4c-5.47,0.48-9.84,4.85-10.32,10.32h-44.3c-0.48-5.47-4.85-9.84-10.32-10.32V84.62z"/>
	<path d="M91.24,99.13c5.69,0,10.31-4.62,10.31-10.31S96.92,78.5,91.24,78.5s-10.31,4.62-10.31,10.31S85.55,99.13,91.24,99.13z
		 M91.24,80.5c4.58,0,8.31,3.73,8.31,8.31s-3.73,8.31-8.31,8.31s-8.31-3.73-8.31-8.31S86.65,80.5,91.24,80.5z"/>
	<rect x="19.88" y="25.83" width="28.05" height="2"/>
	<rect x="36.9" y="120.08" width="40.89" height="2"/>
	<rect x="14.31" y="70.52" width="15" height="2"/>
	<rect x="10.04" y="79.22" width="19.26" height="2"/>
	<rect x="14.31" y="87.92" width="15" height="2"/>
</g>
</svg>
