<?xml version="1.0" encoding="utf-8"?>
<!-- Generator: Adobe Illustrator 24.0.2, SVG Export Plug-In . SVG Version: 6.00 Build 0)  -->
<svg version="1.1" id="Capa_1" xmlns="http://www.w3.org/2000/svg" xmlns:xlink="http://www.w3.org/1999/xlink" x="0px" y="0px"
	 viewBox="0 0 141.73 141.73" style="enable-background:new 0 0 141.73 141.73;" xml:space="preserve">
<g>
	<g>
		<path d="M41.14,119.41v-97.1h59.44v97.1l-29.72-19.03L41.14,119.41z M70.87,98.01l27.72,17.75V24.32H43.14v91.44L70.87,98.01z"/>
	</g>
	<g>
		<path d="M59.82,83.77c-0.39,0-0.78-0.11-1.11-0.33c-0.63-0.42-0.96-1.15-0.86-1.89l1.47-11.68l-8.47-8.44
			c-0.52-0.53-0.71-1.32-0.48-2.02c0.23-0.7,0.85-1.23,1.59-1.34l11.8-1.77l5.3-10.54c0.34-0.67,1.02-1.09,1.77-1.09
			c0.74,0,1.43,0.43,1.77,1.09l5.28,10.49l11.82,1.35c0.75,0.09,1.38,0.58,1.63,1.29l0,0c0.26,0.71,0.1,1.49-0.42,2.04l-8.22,8.67
			l1.56,11.81c0.1,0.74-0.24,1.48-0.85,1.9c-0.61,0.42-1.43,0.46-2.08,0.09l-10.24-5.68l-10.3,5.8
			C60.49,83.68,60.16,83.77,59.82,83.77z M70.82,46.65l-5.74,11.46l-12.83,1.93l9.18,9.1l-1.59,12.65l11.25-6.37l11.22,6.23
			L80.6,68.91l8.84-9.33l-12.85-1.47L70.82,46.65z"/>
	</g>
</g>
</svg>
