<?xml version="1.0" encoding="utf-8"?>
<!-- Generator: Adobe Illustrator 24.0.2, SVG Export Plug-In . SVG Version: 6.00 Build 0)  -->
<svg version="1.1" id="Capa_1" xmlns="http://www.w3.org/2000/svg" xmlns:xlink="http://www.w3.org/1999/xlink" x="0px" y="0px"
	 viewBox="0 0 141.73 141.73" style="enable-background:new 0 0 141.73 141.73;" xml:space="preserve">
<g>
	<path fill="current" d="M67.17,76.68l-0.77,0.93c-0.64,0.77-6.22,7.59-6.22,11.15c0,3.85,3.13,6.99,6.99,6.99s6.99-3.13,6.99-6.99
		c0-3.56-5.58-10.39-6.22-11.15L67.17,76.68z M67.17,93.75c-2.75,0-4.99-2.24-4.99-4.99c0-1.91,2.8-6.13,4.99-8.92
		c2.18,2.79,4.99,7.01,4.99,8.92C72.15,91.51,69.91,93.75,67.17,93.75z"/>
	<path fill="current" d="M49.96,56.92h34.41V30.2H49.96V56.92z M51.96,32.2h30.41v22.71H51.96V32.2z"/>
	<path fill="current" d="M100.76,34.76l-1.35,1.48l10.08,9.17v48.3c0,2.74-2.23,4.97-4.97,4.97c-2.74,0-4.97-2.23-4.97-4.97h-0.01V67.42h0
		c0-3.5-2.6-6.4-5.97-6.89V21.75H40.75v87.88H30.23v10.36h73.87v-10.36H93.58V62.55c2.26,0.47,3.96,2.47,3.97,4.86h0v26.31h0.01
		c0,3.84,3.13,6.97,6.97,6.97c3.84,0,6.96-3.12,6.97-6.95h0V44.52L100.76,34.76z M102.1,111.63v6.36H32.23v-6.36h8.52h52.83H102.1z
		 M42.75,109.63V23.75h48.83v85.88H42.75z"/>
</g>
</svg>
