<?xml version="1.0" encoding="utf-8"?>
<!-- Generator: Adobe Illustrator 17.0.0, SVG Export Plug-In . SVG Version: 6.00 Build 0)  -->
<!DOCTYPE svg PUBLIC "-//W3C//DTD SVG 1.1 Tiny//EN" "http://www.w3.org/Graphics/SVG/1.1/DTD/svg11-tiny.dtd">
<svg version="1.1" baseProfile="tiny" id="Layer_1" xmlns="http://www.w3.org/2000/svg" xmlns:xlink="http://www.w3.org/1999/xlink"
	 x="0px" y="0px" width="1024px" height="1024px" viewBox="0 0 1024 1024" xml:space="preserve">
<g>
	<path d="M583.151,734.692l76.05-60.826c5.546-4.454,7.766-11.862,5.564-18.62c-2.202-6.758-8.362-11.434-15.462-11.758
		l-91.734-4.148l-29.406-86.698c-2.356-6.912-8.858-11.572-16.162-11.572c-7.304,0-13.806,4.66-16.162,11.572l-29.406,86.698
		l-91.733,4.148c-7.1,0.324-13.26,5-15.462,11.758c-2.202,6.758,0.016,14.166,5.58,18.62l76.032,60.826l-30.378,91.101
		c-2.372,7.168,0.222,15.052,6.4,19.388c6.196,4.318,14.472,4.062,20.394-0.614l74.734-59.256l74.734,59.256
		c3.088,2.458,6.844,3.704,10.598,3.704c3.414,0,6.844-1.024,9.796-3.09c6.178-4.334,8.772-12.22,6.4-19.388L583.151,734.692z"/>
	<path d="M369.526,852.393c-79.393-68.25-123.237-137.523-146.601-199.543c0.7,0.018,1.416,0.136,2.116,0.136
		c53.094,0,101.683-35.72,115.643-89.43l17.17-66.082c2.372-9.13-3.106-18.45-12.22-20.804c-30.856-8.038-63.044-3.568-90.571,12.63
		c-26.778,15.736-45.96,40.756-54.358,70.554c-1.042-10.07-1.69-19.764-1.878-28.876c-0.82-36.522,4.232-72.38,14.438-106.325
		l55.398,18.91c12.664,4.318,25.686,6.452,38.674,6.452c18.022,0,35.926-4.114,52.582-12.288
		c28.638-14.08,50.09-38.468,60.382-68.676c1.468-4.284,1.16-8.978-0.836-13.038c-1.98-4.062-5.512-7.15-9.796-8.618l-64.632-22.034
		c-28.724-9.814-58.726-7.612-85.964,4.728c12.526-17.868,26.726-34.594,42.752-49.646c6.878-6.452,7.202-17.254,0.75-24.116
		c-6.452-6.878-17.272-7.202-24.116-0.768c-7.884,7.406-15.326,15.24-22.46,23.296v-17.784c0-65.878-53.59-119.465-119.465-119.465
		c-9.42,0-17.066,7.646-17.066,17.066v68.266c0,56.166,39.014,103.269,91.339,115.985c-14.54,26.316-25.788,54.494-33.57,83.865
		l-2.542-10.308c-15.82-63.948-80.708-103.167-144.657-87.278c-4.386,1.076-8.174,3.874-10.514,7.748
		c-2.34,3.874-3.038,8.516-1.962,12.92l16.402,66.27c13.448,54.34,62.328,90.793,115.985,90.793c5.018,0,10.086-0.376,15.156-1.024
		c-0.392,8.568-0.598,17.17-0.41,25.822c0.256,11.896,1.16,24.662,2.764,38.024c-37.99-48.436-107.605-60.45-159.811-25.89
		c-3.772,2.492-6.4,6.4-7.304,10.838c-0.904,4.42,0,9.046,2.492,12.818L40.52,624.44c17.612,26.624,44.544,44.766,75.81,51.132
		c8.004,1.622,16.06,2.44,24.046,2.44c17.682,0,35.038-3.994,51.064-11.656c9.08,23.842,21.044,48.64,36.438,73.966
		c-55.57-26.266-123.135-5.94-154.419,48.23c-4.71,8.174-1.912,18.602,6.246,23.314l59.12,34.134
		c18.774,10.838,39.288,15.974,59.528,15.974c33.98,0,67.072-14.678,90.093-41.114c17.306,19.148,36.626,38.332,58.828,57.412
		c3.226,2.782,7.186,4.13,11.128,4.13c4.796,0,9.574-2.014,12.936-5.94C377.48,869.305,376.678,858.537,369.526,852.393z"/>
	<path d="M1023.658,554.693c-0.904-4.438-3.532-8.328-7.304-10.838c-52.224-34.542-121.821-22.528-159.811,25.89
		c1.604-13.364,2.508-26.112,2.764-38.008c0.188-8.652-0.016-17.254-0.41-25.838c5.068,0.648,10.138,1.024,15.156,1.024
		c53.64,0,102.553-36.438,115.983-90.793l16.402-66.27c1.092-4.404,0.376-9.046-1.962-12.92c-2.338-3.874-6.11-6.656-10.512-7.748
		c-63.982-15.804-128.819,23.348-144.657,87.28l-2.542,10.308c-7.782-29.354-19.012-57.532-33.554-83.865
		c52.31-12.698,91.323-59.818,91.323-115.985v-68.266c0-9.42-7.646-17.066-17.066-17.066c-65.878,0-119.465,53.606-119.465,119.465
		v17.784c-7.134-8.056-14.558-15.872-22.442-23.278c-6.86-6.434-17.682-6.11-24.132,0.75c-6.45,6.86-6.11,17.664,0.75,24.132
		c16.042,15.052,30.242,31.796,42.77,49.682c-27.238-12.374-57.242-14.574-85.982-4.778l-64.614,22.05
		c-4.284,1.45-7.816,4.556-9.814,8.618c-1.998,4.062-2.304,8.756-0.836,13.038c10.308,30.208,31.744,54.58,60.382,68.66
		c16.658,8.174,34.578,12.306,52.582,12.306c12.988,0,26.026-2.15,38.672-6.468l55.398-18.892
		c10.206,33.946,15.258,69.786,14.456,106.325c-0.204,9.114-0.854,18.808-1.894,28.876c-8.396-29.816-27.58-54.836-54.358-70.57
		c-27.528-16.162-59.682-20.634-90.555-12.63c-9.13,2.372-14.61,11.69-12.236,20.804l17.168,66.082
		c13.96,53.726,62.566,89.43,115.643,89.43c0.7,0,1.416-0.12,2.116-0.136c-23.348,62.038-67.208,131.293-146.601,199.543
		c-7.15,6.144-7.954,16.93-1.81,24.082c3.362,3.908,8.14,5.94,12.954,5.94c3.926,0,7.884-1.366,11.11-4.13
		c22.204-19.08,41.524-38.28,58.828-57.43c23.04,26.436,56.116,41.13,90.094,41.13c20.242,0,40.772-5.136,59.528-15.974
		l59.118-34.134c8.174-4.728,10.956-15.156,6.246-23.314c-31.266-54.152-98.833-74.478-154.401-48.23
		c15.378-25.328,27.34-50.124,36.42-73.984c16.026,7.662,33.382,11.656,51.064,11.656c7.988,0,16.042-0.802,24.046-2.424
		c31.266-6.382,58.198-24.524,75.81-51.148l37.684-56.918C1023.658,563.737,1024.562,559.129,1023.658,554.693z"/>
</g>
</svg>
