<?xml version="1.0" encoding="utf-8"?>
<!-- Generator: Adobe Illustrator 24.0.2, SVG Export Plug-In . SVG Version: 6.00 Build 0)  -->
<svg version="1.1" id="Capa_1" xmlns="http://www.w3.org/2000/svg" xmlns:xlink="http://www.w3.org/1999/xlink" x="0px" y="0px"
	 viewBox="0 0 141.73 141.73" style="enable-background:new 0 0 141.73 141.73;" xml:space="preserve">
<g>
	<path d="M66.41,29.28c-21.21,0-38.47,18.66-38.47,41.59s17.26,41.59,38.47,41.59c21.21,0,38.47-18.66,38.47-41.59
		S87.63,29.28,66.41,29.28z M66.41,110.45c-20.11,0-36.47-17.76-36.47-39.59S46.3,31.28,66.41,31.28s36.47,17.76,36.47,39.59
		S86.53,110.45,66.41,110.45z"/>
	<path d="M79.08,76.47c0.49-1.48,0.43-2.79-0.15-3.8c-0.25-0.44-0.63-0.78-1.06-1.05L80.63,72l-0.4-1.46
		c-1.06-3.87-2.38-6.33-3.36-7.76l1.55-0.29c-0.56-3.02-3.26-9.77-9.49-14c-0.55-2.23-2.5-8.05-5.46-7.85
		c-10.7,0.78-20.81,10.02-24.88,18.31c-1.85,3.76-2.17,6.87-0.91,8.78c2.12,3.21,5.1,5.9,8.28,7.55c-1.2,1.51-3.46,4.32-4.24,5.27
		l-1.07,1.31l1.66,0.31c3.95,0.73,13.93,3.09,21.12,9.17l0-0.01c1.45,1.38,2.91,2.4,4.18,3.12c1.23,0.71,2.62,1.31,4.09,1.79
		c0.03,0.05,0.06,0.1,0.09,0.16l0.13-0.08c2.37,0.75,4.94,1.18,7.46,1.18c3.45,0,6.78-0.8,9.3-2.67l1.34-1l-1.51-0.71
		C82.44,90.26,77.87,80.14,79.08,76.47z M69.15,64.95l5.41-1.92c0.66,0.79,2.08,2.78,3.3,6.56l-4.65-0.65l-0.28,1.98l1.75,0.24
		c-0.61,0.16-1.22,0.43-1.83,0.84c-0.87,0.58-1.65,1.54-2.31,2.75c-1.83-0.07-3.4-0.82-4.67-2.26c-1.75-1.99-2.67-5.07-2.38-7.93
		c3.67-3.55,6.9-7.3,8.69-10.34c2.14,2.67,3.47,5.56,4.05,7.67c-0.42-0.52-0.71-0.77-0.74-0.8l-0.44-0.38l-6.57,2.33L69.15,64.95z
		 M39.87,67.38c0.68-0.57,1.87-1.62,4.08-3.58c3.8-3.37,9.54-8.46,14.35-12.34l-1.26-1.55c-4.84,3.92-10.6,9.02-14.42,12.4
		c-1.42,1.26-2.79,2.47-3.67,3.23c-0.2-1.38,0.29-3.4,1.41-5.7c3.28-6.68,12.66-16.43,23.23-17.2c0.01,0,0.01,0,0.02,0
		c0.8,0,2.61,3.21,3.35,6.3c-2.1,3.48-11.18,11.79-17.02,16.42l1.24,1.57c4.76-3.77,14.1-12.01,17.13-16.39
		c0.89,0.65,1.71,1.37,2.45,2.13c-3.64,6.81-16.5,18.56-23.22,21.18C44.67,72.52,41.93,70.21,39.87,67.38z M44.31,80.54
		c1.32-1.64,3.23-4.03,3.82-4.76c2.28-0.86,5.2-2.7,8.25-5.03c-0.36,6.71,1.02,11.72,3.07,15.42
		C53.87,82.98,47.92,81.33,44.31,80.54z M68.6,92.72c-4.41-2.52-11.54-8.95-10.1-23.67c1-0.82,1.99-1.68,2.97-2.57
		c0.19,2.74,1.23,5.45,2.9,7.36c1.44,1.64,3.26,2.61,5.3,2.87c-1.61,4.47-1.82,11.05,0.67,16.91C69.76,93.35,69.18,93.05,68.6,92.72
		z M73.07,94.63c-4.73-8.5-2.29-18.84,0.88-20.94c0.68-0.45,1.32-0.68,1.9-0.68c0.57-0.02,1.12,0.27,1.35,0.67
		c0.38,0.66,0.15,1.64-0.02,2.17c-1.5,4.57,2.86,14.22,8.94,18.21C82.9,95.66,77.97,96.09,73.07,94.63z"/>
	<path d="M75.32,20.65h-6.9v0.05c-0.66-0.03-1.33-0.05-2-0.05c-25.61,0-46.44,22.53-46.44,50.21s20.83,50.21,46.44,50.21
		c0.38,0,0.75-0.02,1.13-0.03v0.03h7.77c25.61,0,46.44-22.53,46.44-50.21S100.92,20.65,75.32,20.65z M21.98,70.87
		c0-26.59,19.93-48.21,44.44-48.21s44.44,21.63,44.44,48.21c0,26.59-19.93,48.21-44.44,48.21S21.98,97.45,21.98,70.87z
		 M80.37,118.76c18.81-6.42,32.48-25.46,32.48-47.89c0-22.43-13.67-41.47-32.48-47.89c22.13,2.73,39.38,23.16,39.38,47.89
		C119.76,95.6,102.5,116.03,80.37,118.76z"/>
</g>
</svg>
