<?xml version="1.0" encoding="utf-8"?>
<!-- Generator: Adobe Illustrator 24.0.2, SVG Export Plug-In . SVG Version: 6.00 Build 0)  -->
<svg version="1.1" id="Capa_1" xmlns="http://www.w3.org/2000/svg" xmlns:xlink="http://www.w3.org/1999/xlink" x="0px" y="0px"
	 viewBox="0 0 141.73 141.73" style="enable-background:new 0 0 141.73 141.73;" xml:space="preserve">
<g>
	<path d="M77.79,26.19H72v-4.45h-24.2V25c-3.5,0.32-15.44,2.04-19.49,10.84l-0.73,1.58l1.73-0.17c6.07-0.58,15.58-1.42,18.49-1.53
		v0.88v2.9h7.04v31.71h-1.56l-2.91,48.46h19.08l-2.91-48.46h-1.56V39.51H72v-4.45h5.74c1.54,2.72,4.45,4.56,7.79,4.56h1V21.71h-1
		C82.23,21.71,79.34,23.52,77.79,26.19z M67.32,117.68H52.49l2.67-44.46h9.48L67.32,117.68z M56.84,71.22V39.54h6.12v31.68H56.84z
		 M31.02,35.08c4.16-6.25,13.63-7.74,16.78-8.07v6.73C45.72,33.73,41.13,34.12,31.02,35.08z M70,37.51h-20.2v-2.17l0.22-0.14
		l-0.22-0.65v-9.66v-1.15H70v2.45v8.87V37.51z M76.58,33.06H72v-4.87h4.58V33.06z M84.53,37.54c-3.36-0.49-5.95-3.39-5.95-6.88
		s2.59-6.39,5.95-6.88V37.54z"/>
	<path d="M114.14,80.91v-9.69h-5.54V38.19l2.93-4.95l-2.25-11.51h-9.97l-2.25,11.51l2.93,4.95v33.03h-5.54v9.69h2.97v4.69h-2.97
		v25.43c0,4.95,4.03,8.98,8.98,8.98h1.72c4.95,0,8.98-4.03,8.98-8.98V85.6h-2.97v-4.69H114.14z M99.17,32.88l1.79-9.15h6.68
		l1.79,9.15l-2.83,4.76v33.58h-4.61V37.64L99.17,32.88z M112.14,87.6v23.43c0,3.85-3.13,6.98-6.98,6.98h-1.72
		c-3.85,0-6.98-3.13-6.98-6.98V87.6h2.97v-8.69h-2.97v-5.69h3.54h8.61h3.54v5.69h-2.97v8.69H112.14z"/>
</g>
</svg>
