<?xml version="1.0" encoding="UTF-8"?>
<svg enable-background="new 0 0 141.73 141.73" version="1.1" viewBox="0 0 141.73 141.73" xml:space="preserve" xmlns="http://www.w3.org/2000/svg">
<style type="text/css">
	.st0{fill:none;stroke:#FAFAFA;stroke-width:3;stroke-miterlimit:10;}
	.st1{fill:#FAFAFA;stroke:none}
</style>

	<line class="st0" x1="30.13" x2="30.13" y1="80.17" y2="58.93"/>
	<polyline class="st0" points="30.13 37.06 30.13 29.42 115.19 29.42 115.19 109.71 30.13 109.71 30.13 101.68"/>

		<rect class="st1" x="26.54" y="80.17" width="7.17" height="21.5"/>
		<rect class="st1" x="26.54" y="37.43" width="7.17" height="21.5"/>


		<circle class="st0" cx="62.32" cy="64.48" r="16.61"/>
		<line class="st0" x1="62.32" x2="62.32" y1="38.6" y2="47.87"/>
		<line class="st0" x1="62.32" x2="62.32" y1="81.09" y2="90.37"/>
		<line class="st0" x1="88.2" x2="78.93" y1="64.48" y2="64.48"/>
		<line class="st0" x1="45.7" x2="36.43" y1="64.48" y2="64.48"/>
		<circle class="st1" cx="62.32" cy="64.48" r="5.4"/>



			<rect class="st1" x="42.1" y="109.71" width="9.94" height="8.77"/>


			<rect class="st1" x="93.28" y="109.71" width="9.94" height="8.77"/>


	<circle class="st1" cx="86.51" cy="79.95" r="2.5"/>
	<circle class="st1" cx="95.61" cy="79.95" r="2.5"/>
	<circle class="st1" cx="104.72" cy="79.95" r="2.5"/>
	<circle class="st1" cx="86.51" cy="88.92" r="2.5"/>
	<circle class="st1" cx="95.61" cy="88.92" r="2.5"/>
	<circle class="st1" cx="104.72" cy="88.92" r="2.5"/>
	<circle class="st1" cx="86.51" cy="97.88" r="2.5"/>
	<circle class="st1" cx="95.61" cy="97.88" r="2.5"/>
	<circle class="st1" cx="104.72" cy="97.88" r="2.5"/>

</svg>
