<?xml version="1.0" encoding="utf-8"?>
<!-- Generator: Adobe Illustrator 24.0.2, SVG Export Plug-In . SVG Version: 6.00 Build 0)  -->
<svg version="1.1" id="Capa_1" xmlns="http://www.w3.org/2000/svg" xmlns:xlink="http://www.w3.org/1999/xlink" x="0px" y="0px"
	 viewBox="0 0 141.73 141.73" style="enable-background:new 0 0 141.73 141.73;" xml:space="preserve">
<g>
	<path d="M114.64,108.82V69.33c2.78-1.97,4.62-5.31,4.62-9.09v-5l-9.79-24.73h-0.1v-8.76H32.12v9.31l-9.57,24.18v5
		c0,4.42,2.52,8.24,6.13,9.97h-0.74v38.61h-4.65v10.89h96.01v-10.89H114.64z M112.97,68.03h-0.33v0.19
		c-1.16,0.63-2.46,0.99-3.85,0.99c-4.67,0-8.47-4.02-8.47-8.97v-3.81h16.94v3.81C117.26,63.57,115.53,66.48,112.97,68.03z
		 M93.08,32.51l4.3,21.92H81.68l-1.7-21.92H93.08z M77.98,32.51l1.7,21.92H62.15l1.7-21.92H77.98z M60.15,54.43H43.53l4.3-21.92
		h14.02L60.15,54.43z M41.49,54.43H25.02l8.68-21.92h12.09L41.49,54.43z M43.49,56.43h16.94v3.81c0,4.95-3.8,8.97-8.47,8.97
		s-8.47-4.02-8.47-8.97V56.43z M62.43,56.43h16.94v3.81c0,4.95-3.8,8.97-8.47,8.97c-4.67,0-8.47-4.02-8.47-8.97V56.43z M81.37,56.43
		h16.94v3.81c0,4.95-3.8,8.97-8.47,8.97s-8.47-4.02-8.47-8.97V56.43z M116.79,54.43H99.42l-4.3-21.92h12.99L116.79,54.43z
		 M34.12,23.75h73.25v6.76H34.12V23.75z M24.55,60.24v-3.81h16.94v3.81c0,4.95-3.8,8.97-8.47,8.97S24.55,65.18,24.55,60.24z
		 M29.94,70.72c0.98,0.32,2.01,0.49,3.08,0.49c4.19,0,7.8-2.59,9.47-6.32c1.67,3.73,5.28,6.32,9.47,6.32c4.19,0,7.8-2.59,9.47-6.32
		c1.67,3.73,5.28,6.32,9.47,6.32c4.19,0,7.8-2.59,9.47-6.32c1.67,3.73,5.28,6.32,9.47,6.32s7.8-2.59,9.47-6.32
		c1.67,3.73,5.28,6.32,9.47,6.32c1.36,0,2.66-0.28,3.85-0.78v38.39h-5.7V80.7H84.12v28.12H29.94V70.72z M104.94,108.82H86.12V82.7
		h18.82V108.82z M117.29,117.71H25.28v-6.89h2.65h56.18h22.82h7.7h2.66V117.71z"/>
	<path d="M35.27,103.9h42.47V80.7H35.27V103.9z M37.27,82.7h38.47v19.2H37.27V82.7z"/>
</g>
</svg>
