<?xml version="1.0" encoding="utf-8"?>
<!-- Generator: Adobe Illustrator 17.0.0, SVG Export Plug-In . SVG Version: 6.00 Build 0)  -->
<!DOCTYPE svg PUBLIC "-//W3C//DTD SVG 1.1//EN" "http://www.w3.org/Graphics/SVG/1.1/DTD/svg11.dtd">
<svg version="1.1" id="Capa_1" xmlns="http://www.w3.org/2000/svg" xmlns:xlink="http://www.w3.org/1999/xlink" x="0px" y="0px"
	 width="1024px" height="1024px" viewBox="0 0 1024 1024" enable-background="new 0 0 1024 1024" xml:space="preserve">
<g>
	<path d="M362.417,284.321l83.135-173.079l37.968-79.056l-6.118-12.766C471.72,7.555,459.722,0,446.552,0H204.349
		c-11.767,0-22.695,6.051-28.981,16.011c-6.249,9.96-6.951,22.43-1.87,33.023L324.48,363.369L362.417,284.321z"/>
	<path d="M848.63,16.011C842.346,6.051,831.416,0,819.649,0H577.479c-13.166,0-25.171,7.555-30.849,19.419L359.612,408.831
		c-0.135,0.302-0.169,0.602-0.304,0.902c-0.298,0.671-0.435,1.406-0.702,2.109c-1.201,3.246-1.901,6.686-2.07,10.326
		c-0.035,0.504-0.302,0.937-0.302,1.476v17.645c46.495-24.336,99.275-38.308,155.295-38.308c56.059,0,108.803,13.974,155.332,38.343
		v-9.893L850.502,49.038C855.583,38.441,854.879,25.972,848.63,16.011z"/>
	<path d="M511.529,454.325c-157.335,0-284.856,127.519-284.856,284.854c0,157.302,127.521,284.821,284.856,284.821
		c157.302,0,284.825-127.519,284.825-284.821C796.357,581.844,668.831,454.325,511.529,454.325z M700.492,732.922
		c-4.155,1.892-6.035-3.069-8.463-5.397c-8.981-8.609-18.011-17.212-26.375-26.407c-6.149-6.761-10.579-6.482-16.972,0.002
		c-33.918,34.402-68.419,68.232-102.229,102.738c-7.384,7.536-12.015,9.097-19.997,0.586
		c-18.733-19.975-38.723-38.765-57.684-58.534c-6.822-7.113-11.361-7.631-18.596-0.243c-32.522,33.206-65.723,65.747-98.332,98.869
		c-6.166,6.263-9.983,7.188-16.638,0.354c-19.396-19.92-19.767-19.691-0.45-39.077c38.75-38.89,77.71-77.573,116.25-116.671
		c6.306-6.398,10.184-6.878,16.646-0.169c20.309,21.085,41.387,41.426,61.879,62.338c4.914,5.015,8.087,5.433,13.282,0.141
		c26.408-26.901,53.068-53.558,79.952-79.984c5.173-5.085,5.297-8.305,0.039-13.248c-10.662-10.022-20.809-20.593-31.123-30.983
		c-1.48-1.491-3.797-2.949-2.888-5.402c0.942-2.542,3.67-1.992,5.756-1.998c32.574-0.082,65.148-0.013,97.721-0.2
		c7.719-0.044,10.239,3.681,10.152,10.846c-0.194,16.102-0.061,32.207-0.061,48.311c-0.029,0-0.058,0-0.087,0
		c0,15.006,0.071,30.013-0.058,45.018C702.188,726.961,703.748,731.44,700.492,732.922z"/>
	<path fill="#FFFFFF" d="M702.273,678.796c0.029,0,0.058,0,0.087,0c0-16.104-0.133-32.21,0.061-48.311
		c0.086-7.165-2.433-10.891-10.152-10.846c-32.573,0.186-65.148,0.117-97.721,0.2c-2.087,0.005-4.815-0.544-5.756,1.998
		c-0.909,2.453,1.409,3.911,2.888,5.402c10.314,10.39,20.461,20.961,31.123,30.983c5.258,4.943,5.135,8.162-0.039,13.248
		c-26.884,26.426-53.544,53.084-79.952,79.984c-5.196,5.293-8.369,4.874-13.282-0.141c-20.492-20.912-41.57-41.253-61.879-62.338
		c-6.462-6.709-10.34-6.228-16.646,0.169c-38.539,39.098-77.499,77.78-116.25,116.671c-19.316,19.386-18.946,19.157,0.45,39.077
		c6.655,6.835,10.472,5.91,16.638-0.354c32.609-33.123,65.81-65.663,98.332-98.869c7.235-7.388,11.774-6.87,18.596,0.243
		c18.961,19.769,38.951,38.559,57.684,58.534c7.982,8.511,12.613,6.949,19.997-0.586c33.81-34.506,68.311-68.336,102.229-102.738
		c6.393-6.484,10.822-6.762,16.972-0.002c8.364,9.195,17.394,17.798,26.375,26.407c2.429,2.328,4.308,7.289,8.463,5.397
		c3.256-1.482,1.696-5.962,1.723-9.109C702.345,708.809,702.273,693.802,702.273,678.796z"/>
</g>
</svg>
