<?xml version="1.0" encoding="UTF-8"?>
<svg enable-background="new 0 0 141.73 141.73" version="1.1" viewBox="0 0 141.73 141.73" xml:space="preserve" xmlns="http://www.w3.org/2000/svg">

	<path fill="current" d="m119.57 69.47h-5.75c-1.18-2.99-2.82-5.82-4.87-8.43 0.56-3.11 1.5-7.4 2.95-10.98 0.25-0.63 0.2-1.33-0.15-1.92-0.34-0.57-0.91-0.95-1.58-1.03-4.42-0.5-8.61 2.28-11.51 4.92-6.4-3.84-13.84-5.86-21.56-5.86-15.62 0-29.12 8.31-35.32 20.26-2.64-0.19-5.42 0.33-8.16 1.6-0.08 0.04-0.16 0.07-0.23 0.11-0.38-2.2-1.16-4.19-2.47-5.58-1.84-1.95-5.34-3.45-11.6 0.5l1.07 1.69c4.1-2.59 7.16-2.86 9.08-0.82 1.15 1.22 1.8 3.12 2.06 5.22-4.42 2.7-7.63 6.88-7.63 10.2 0 1.74 0.9 3.11 2.53 3.86 0.46 0.21 0.93 0.32 1.39 0.32 1.18 0 2.31-0.68 3.25-1.98 1.7-2.37 2.79-6.98 2.55-11.29 0.27-0.14 0.55-0.28 0.84-0.42 1.54-0.71 3.82-1.49 6.4-1.48-1.74 3.97-2.71 8.29-2.71 12.8 0 8.93 3.74 17.42 10.53 23.92 3.2 3.06 10.45 13.78 10.86 16.51l0.13 0.85h10.58l0.56-6.73c3.93 0.58 7.84 0.61 11.79 0.12l0.56 6.62h10.58l0.13-0.85c0.3-1.98 6.93-12.26 10.63-15.55 4.68-4.17 8.12-9.33 9.97-14.97h5.11c1.91 0 2.53-2.91 2.73-3.87 0.39-1.85 0.6-4.32 0.6-6.96-0.02-4.01-0.45-10.78-3.34-10.78zm-90.13 10.93c-1.09 1.52-1.88 1.15-2.18 1.01-0.92-0.42-1.36-1.09-1.37-2.05 0-2.15 2.22-5.46 5.76-7.9 0.01 3.49-0.88 7.09-2.21 8.94zm90.04 8.7h-6.5l-0.21 0.71c-1.68 5.56-5 10.66-9.61 14.76-3.38 3.01-9.69 12.22-11.04 15.9h-7.13l-0.58-6.9-1.05 0.16c-4.46 0.66-8.87 0.62-13.29-0.14l-1.08-0.18-0.58 7.06h-7.11c-1.37-4.13-8.17-13.86-11.24-16.8-6.39-6.12-9.91-14.1-9.91-22.48 0-4.46 1-8.72 2.81-12.61 1.92 0.34 3.93 1.19 5.88 2.85l1.3-1.52c-1.88-1.6-4-2.65-6.26-3.16 6.01-10.98 18.64-18.57 33.23-18.57 7.62 0 14.93 2.06 21.16 5.96l0.66 0.41 0.56-0.54c2.6-2.49 6.53-5.35 10.46-4.91 0.02 0 0.06 0.01 0.09 0.06 0.02 0.03 0.04 0.08 0.01 0.15-1.58 3.91-2.58 8.59-3.14 11.82l-0.08 0.45 0.28 0.35c2.2 2.73 3.91 5.71 5.08 8.88l0.24 0.65h7.06c0.51 0.44 1.41 3.38 1.4 8.9-0.01 5.43-0.9 8.32-1.41 8.74z"/>
	<path fill="current" d="m76.77 54.51c-4.56 0-8.54 2.92-9.95 7.19h-5.54v2h30.97v-2h-5.53c-1.4-4.27-5.38-7.19-9.95-7.19zm0 2c3.47 0 6.52 2.08 7.82 5.19h-15.64c1.31-3.11 4.36-5.19 7.82-5.19z"/>
	<path fill="current" d="m75.69 38.63c5.34 0 9.68-4.34 9.68-9.68s-4.34-9.68-9.68-9.68-9.68 4.34-9.68 9.68 4.34 9.68 9.68 9.68zm0-17.36c4.23 0 7.68 3.45 7.68 7.68s-3.45 7.68-7.68 7.68c-4.24 0-7.68-3.45-7.68-7.68s3.45-7.68 7.68-7.68z"/>

</svg>
