<?xml version="1.0" encoding="utf-8"?>
<!-- Generator: Adobe Illustrator 24.0.2, SVG Export Plug-In . SVG Version: 6.00 Build 0)  -->
<svg version="1.1" id="Capa_1" xmlns="http://www.w3.org/2000/svg" xmlns:xlink="http://www.w3.org/1999/xlink" x="0px" y="0px"
	 viewBox="0 0 141.73 141.73" style="enable-background:new 0 0 141.73 141.73;" xml:space="preserve">
<g>
	<path d="M85.15,93.81c3.07,0,5.57-2.5,5.57-5.57s-2.5-5.57-5.57-5.57s-5.57,2.5-5.57,5.57S82.08,93.81,85.15,93.81z M85.15,84.67
		c1.97,0,3.57,1.6,3.57,3.57c0,1.97-1.6,3.57-3.57,3.57c-1.97,0-3.57-1.6-3.57-3.57C81.58,86.27,83.18,84.67,85.15,84.67z"/>
	<path d="M119.87,52.48l-30.29-30.3l-7.72,7.6l-7.75-7.75L60.03,35.88c-2.18,0.1-21.64,1.04-28.98,2.04
		c-5.4,0.73-8.76,3.57-8.76,7.4c0,0.25,0.01,0.51,0.02,0.77l-0.02,73.2h85.9V63.78L119.87,52.48z M117.01,52.46L108.19,61v-6.34
		H59.41L89.56,25L117.01,52.46z M80.43,31.18L56.56,54.66H43.78l30.31-29.81L80.43,31.18z M31.26,54.66
		c-0.76-0.11-1.44-0.3-2.04-0.56c0.15-5.21,2.14-6.64,5.21-7.18l15.71-1.32l-9.2,9.05H31.26z M31.31,39.9
		c6.01-0.82,20.76-1.62,26.57-1.91l-5.52,5.42l-18.2,1.53c-4.36,0.76-6.48,3.18-6.89,7.97c-2.8-2.44-2.99-6.56-2.99-7.59
		C24.29,42.57,26.98,40.49,31.31,39.9z M24.29,117.29V52.48c1.39,2.11,3.56,3.74,6.77,4.17l75.13,0.01v17.95H71.24v27.26h34.95
		v15.42H24.29z M106.19,76.61v23.26H73.24V76.61H106.19z"/>
</g>
</svg>
